# Blender 4.2.3 LTS
# www.blender.org
mtllib SteamMachine.mtl
o FrontPart_02
v -0.480484 0.051883 -0.421201
v -0.480484 0.092923 -0.421201
v -0.440484 0.014507 -0.489608
v -0.440484 0.014507 0.489608
v -0.440484 0.129830 0.489608
v -0.440484 0.129830 -0.489608
v -0.440484 0.014507 0.381174
v -0.440484 0.129830 0.381174
v -0.480484 0.014507 0.437733
v -0.480484 0.014507 0.453736
v -0.480484 0.129830 0.453736
v -0.480484 0.129830 0.489608
v -0.480484 0.129830 0.419255
v -0.480484 0.014507 0.489608
v -0.480484 0.014507 0.419255
v -0.480484 0.129830 0.437733
v -0.480484 0.037006 0.437733
v -0.480484 0.046245 0.453736
v -0.480484 0.080726 0.462975
v -0.480484 0.096728 0.453736
v -0.480484 0.105967 0.419255
v -0.480484 0.096728 0.403252
v -0.480484 0.062248 0.394013
v -0.480484 0.046245 0.403252
v -0.480484 0.062248 0.462975
v -0.480484 0.080726 0.394013
v -0.480484 0.037006 0.419255
v -0.480484 0.105967 0.437733
v -0.475484 0.037006 0.437733
v -0.475484 0.046245 0.453736
v -0.475484 0.080726 0.462975
v -0.475484 0.096728 0.453736
v -0.475484 0.105967 0.419255
v -0.475484 0.096728 0.403252
v -0.475484 0.062248 0.394013
v -0.475484 0.046245 0.403252
v -0.475484 0.062248 0.462975
v -0.475484 0.080726 0.394013
v -0.475484 0.037006 0.419255
v -0.475484 0.105967 0.437733
v -0.480484 0.129830 0.322979
v -0.440484 0.129830 0.322979
v -0.440484 0.014507 0.322979
v -0.480484 0.092923 -0.228490
v -0.480484 0.051883 -0.228490
v -0.440484 0.014507 -0.286621
v -0.440484 0.129830 -0.286621
v -0.480484 0.092923 -0.139309
v -0.480484 0.065415 0.037360
v -0.480484 0.051349 0.037360
v -0.480484 0.051883 -0.139309
v -0.440484 0.014507 -0.087619
v -0.440484 0.014507 0.087619
v -0.440484 0.129830 0.087619
v -0.440484 0.129830 -0.087619
v -0.480484 0.092923 -0.332019
v -0.480484 0.051883 -0.332019
v -0.480484 0.065415 -0.039714
v -0.480484 0.051349 -0.039714
v -0.480484 0.129830 -0.286621
v -0.480484 0.129830 -0.489608
v -0.480484 0.014507 -0.489608
v -0.480484 0.014507 -0.286621
v -0.480484 0.014507 0.087619
v -0.480484 0.014507 -0.087619
v -0.480484 0.129830 -0.087619
v -0.480484 0.129830 0.087619
v -0.480484 0.014507 0.381174
v -0.480484 0.129830 0.381174
v -0.480484 0.014507 0.322979
v -0.480484 0.077943 0.360144
v -0.480484 0.065986 0.360141
v -0.480484 0.077944 0.355191
v -0.480484 0.065988 0.355189
v -0.480484 0.080726 0.381174
v -0.480484 0.062248 0.381174
v -0.480484 0.069488 0.363643
v -0.480484 0.074440 0.363645
v -0.480484 0.074443 0.351689
v -0.480484 0.069491 0.351688
v -0.440484 0.129830 0.453736
v -0.440484 0.014507 0.453002
v -0.440484 0.129830 0.355191
v -0.440484 0.014507 0.355191
v -0.480484 0.014507 0.355191
v -0.480484 0.129830 0.355191
v -0.440484 0.014507 0.437733
v -0.440484 0.129830 0.437733
v -0.440484 0.129830 0.419255
v -0.440484 0.014507 0.419255
v -0.478325 0.065986 0.360141
v -0.478325 0.065988 0.355189
v -0.478325 0.077943 0.360144
v -0.478325 0.077944 0.355191
v -0.478325 0.074443 0.351689
v -0.478325 0.069491 0.351688
v -0.478325 0.074440 0.363645
v -0.478325 0.069488 0.363643
v -0.492394 0.051349 0.037360
v -0.492394 0.065415 0.037360
v -0.492394 0.051349 -0.039714
v -0.492394 0.065415 -0.039714
v -0.497430 0.065415 -0.039714
v -0.497430 0.065415 0.037360
v -0.497430 0.051349 0.037360
v -0.497430 0.051349 -0.039714
v -0.492394 0.051883 -0.139309
v -0.492394 0.092923 -0.139309
v -0.492394 0.051883 -0.228490
v -0.492394 0.092923 -0.228490
v -0.497430 0.092923 -0.228490
v -0.497430 0.092923 -0.139309
v -0.497430 0.051883 -0.139309
v -0.497430 0.051883 -0.228490
v -0.492394 0.051883 -0.332019
v -0.492394 0.092923 -0.332019
v -0.492394 0.051883 -0.421201
v -0.492394 0.092923 -0.421201
v -0.497430 0.092923 -0.421201
v -0.497430 0.092923 -0.332019
v -0.497430 0.051883 -0.332019
v -0.497430 0.051883 -0.421201
v -0.478325 0.066407 0.359967
v -0.478325 0.066408 0.355363
v -0.478325 0.077523 0.359969
v -0.478325 0.077524 0.355365
v -0.478325 0.074269 0.352109
v -0.478325 0.069665 0.352108
v -0.478325 0.074266 0.363224
v -0.478325 0.069662 0.363223
v -0.480484 0.067073 0.359691
v -0.480484 0.067074 0.355639
v -0.480484 0.076857 0.359693
v -0.480484 0.076858 0.355641
v -0.480484 0.073993 0.352775
v -0.480484 0.069940 0.352775
v -0.480484 0.073990 0.362558
v -0.480484 0.069938 0.362557
v -0.480223 0.066407 0.359967
v -0.480223 0.066408 0.355363
v -0.480223 0.077523 0.359969
v -0.480223 0.077524 0.355365
v -0.480223 0.074269 0.352109
v -0.480223 0.069665 0.352108
v -0.480223 0.074266 0.363224
v -0.480223 0.069662 0.363223
v -0.475484 0.038008 0.437465
v -0.475484 0.046979 0.453002
v -0.475484 0.080457 0.461973
v -0.475484 0.095995 0.453002
v -0.475484 0.104965 0.419524
v -0.475484 0.095995 0.403986
v -0.475484 0.062516 0.395016
v -0.475484 0.046979 0.403986
v -0.475484 0.062516 0.461973
v -0.475484 0.080457 0.395016
v -0.475484 0.038008 0.419524
v -0.475484 0.104965 0.437465
v -0.478874 0.045611 0.435428
v -0.478874 0.052544 0.447437
v -0.478874 0.078420 0.454370
v -0.478874 0.090429 0.447437
v -0.478874 0.097363 0.421561
v -0.478874 0.090429 0.409552
v -0.478874 0.064553 0.402618
v -0.478874 0.052544 0.409552
v -0.478874 0.064553 0.454370
v -0.478874 0.078420 0.402618
v -0.478874 0.045611 0.421561
v -0.478874 0.097363 0.435428
v -0.480484 0.038008 0.437465
v -0.480484 0.046979 0.453002
v -0.480484 0.080457 0.461973
v -0.480484 0.095995 0.453002
v -0.480484 0.104965 0.419524
v -0.480484 0.095995 0.403986
v -0.480484 0.062516 0.395016
v -0.480484 0.046979 0.403986
v -0.480484 0.062516 0.461973
v -0.480484 0.080457 0.395016
v -0.480484 0.038008 0.419524
v -0.480484 0.104965 0.437465
v -0.480776 0.039975 0.436938
v -0.480776 0.048419 0.451562
v -0.480776 0.079930 0.460005
v -0.480776 0.094554 0.451562
v -0.480776 0.102998 0.420051
v -0.480776 0.094554 0.405426
v -0.480776 0.063043 0.396983
v -0.480776 0.048419 0.405426
v -0.480776 0.063043 0.460005
v -0.480776 0.079930 0.396983
v -0.480776 0.039975 0.420051
v -0.480776 0.102998 0.436938
v 0.491622 0.634380 -0.375441
v 0.501972 0.772046 -0.319120
v 0.491622 0.485639 -0.374792
v 0.501972 0.877680 -0.214403
v 0.491622 0.348469 -0.317271
v 0.501972 0.912686 -0.130925
v 0.491622 0.243753 -0.211637
v 0.501972 0.913804 0.125393
v 0.491622 0.187432 -0.073971
v 0.501972 0.879529 0.209174
v 0.491622 0.188081 0.074770
v 0.501972 0.774812 0.314808
v 0.491622 0.245601 0.211940
v 0.501972 0.637642 0.372328
v 0.491622 0.351235 0.316656
v 0.501972 0.488902 0.372977
v 0.491622 0.488902 0.372977
v 0.501972 0.351235 0.316656
v 0.491622 0.637642 0.372328
v 0.501972 0.245601 0.211940
v 0.491622 0.774812 0.314808
v 0.501972 0.188081 0.074770
v 0.491622 0.879529 0.209174
v 0.501972 0.187432 -0.073971
v 0.491622 0.913804 0.125393
v 0.501972 0.243753 -0.211637
v 0.491622 0.912686 -0.130925
v 0.501972 0.348469 -0.317271
v 0.491622 0.877680 -0.214403
v 0.501972 0.485639 -0.374792
v 0.491622 0.772046 -0.319120
v 0.501972 0.634380 -0.375441
v 0.491622 0.890086 0.405002
v 0.501972 0.894834 0.422021
v 0.491622 0.871103 0.405028
v 0.501972 0.894850 0.433798
v 0.491622 0.857698 0.418470
v 0.501972 0.886535 0.442137
v 0.491622 0.857725 0.437453
v 0.501972 0.874758 0.442154
v 0.491622 0.871167 0.450857
v 0.501972 0.866419 0.433838
v 0.491622 0.890150 0.450831
v 0.501972 0.866402 0.422061
v 0.491622 0.903554 0.437389
v 0.501972 0.874718 0.413722
v 0.491622 0.903528 0.418406
v 0.501972 0.886495 0.413706
v 0.501972 0.903528 0.418406
v 0.501972 0.890086 0.405002
v 0.501972 0.903554 0.437389
v 0.501972 0.890150 0.450831
v 0.501972 0.871167 0.450857
v 0.501972 0.857725 0.437453
v 0.501972 0.857698 0.418470
v 0.501972 0.871103 0.405028
v 0.499615 0.894834 0.422021
v 0.499615 0.886495 0.413706
v 0.499615 0.894850 0.433798
v 0.499615 0.886535 0.442137
v 0.499615 0.874758 0.442154
v 0.499615 0.866419 0.433838
v 0.499615 0.866402 0.422061
v 0.499615 0.874718 0.413722
v 0.491622 0.890086 -0.405002
v 0.501972 0.894834 -0.422021
v 0.491622 0.871103 -0.405028
v 0.501972 0.894850 -0.433798
v 0.491622 0.857698 -0.418470
v 0.501972 0.886535 -0.442137
v 0.491622 0.857725 -0.437453
v 0.501972 0.874758 -0.442154
v 0.491622 0.871167 -0.450857
v 0.501972 0.866419 -0.433838
v 0.491622 0.890150 -0.450831
v 0.501972 0.866402 -0.422061
v 0.491622 0.903554 -0.437389
v 0.501972 0.874718 -0.413722
v 0.491622 0.903528 -0.418406
v 0.501972 0.886495 -0.413706
v 0.501972 0.903528 -0.418406
v 0.501972 0.890086 -0.405002
v 0.501972 0.903554 -0.437389
v 0.501972 0.890150 -0.450831
v 0.501972 0.871167 -0.450857
v 0.501972 0.857725 -0.437453
v 0.501972 0.857698 -0.418470
v 0.501972 0.871103 -0.405028
v 0.499615 0.894834 -0.422021
v 0.499615 0.886495 -0.413706
v 0.499615 0.894850 -0.433798
v 0.499615 0.886535 -0.442137
v 0.499615 0.874758 -0.442154
v 0.499615 0.866419 -0.433838
v 0.499615 0.866402 -0.422061
v 0.499615 0.874718 -0.413722
v 0.500519 0.061758 -0.316354
v 0.500519 0.102798 -0.316354
v 0.500519 0.061758 -0.405535
v 0.500519 0.102798 -0.405535
v 0.495484 0.102798 -0.405535
v 0.495484 0.102798 -0.316354
v 0.495484 0.061758 -0.316354
v 0.495484 0.061758 -0.405535
v 0.500519 0.151758 -0.316354
v 0.500519 0.192798 -0.316354
v 0.500519 0.151758 -0.405535
v 0.500519 0.192798 -0.405535
v 0.495484 0.192798 -0.405535
v 0.495484 0.192798 -0.316354
v 0.495484 0.151758 -0.316354
v 0.495484 0.151758 -0.405535
v 0.500614 0.251742 -0.332250
v 0.500614 0.241847 -0.342145
v 0.500614 0.246794 -0.333576
v 0.500614 0.243172 -0.337198
v 0.500614 0.268330 -0.342145
v 0.500614 0.258435 -0.332250
v 0.500614 0.267004 -0.337198
v 0.500614 0.263383 -0.333576
v 0.500614 0.241847 -0.380721
v 0.500614 0.251742 -0.390616
v 0.500614 0.243172 -0.385669
v 0.500614 0.246794 -0.389291
v 0.500614 0.258435 -0.390616
v 0.500614 0.268330 -0.380721
v 0.500614 0.263382 -0.389291
v 0.500614 0.267004 -0.385669
v 0.497365 0.268330 -0.380721
v 0.497365 0.258435 -0.390616
v 0.497365 0.267004 -0.385669
v 0.497365 0.263382 -0.389291
v 0.497365 0.258435 -0.332250
v 0.497365 0.268330 -0.342145
v 0.497365 0.263383 -0.333576
v 0.497365 0.267004 -0.337198
v 0.497365 0.241847 -0.342145
v 0.497365 0.251742 -0.332250
v 0.497365 0.243172 -0.337198
v 0.497365 0.246794 -0.333576
v 0.497365 0.251742 -0.390616
v 0.497365 0.241847 -0.380721
v 0.497365 0.246794 -0.389291
v 0.497365 0.243172 -0.385669
v 0.500519 0.061758 -0.142966
v 0.500519 0.134495 -0.142966
v 0.500519 0.061758 -0.232147
v 0.500519 0.134495 -0.232147
v 0.495484 0.134495 -0.232147
v 0.495484 0.134495 -0.142966
v 0.495484 0.061758 -0.142966
v 0.495484 0.061758 -0.232147
v 0.500519 0.074412 0.410618
v 0.500519 0.060525 0.396731
v 0.495484 0.060525 0.396731
v 0.495484 0.074412 0.410618
v 0.500519 0.104031 0.408060
v 0.500519 0.101474 0.410618
v 0.500519 0.060525 0.298852
v 0.500519 0.063083 0.296294
v 0.500519 0.101474 0.296294
v 0.500519 0.104031 0.298852
v 0.495484 0.104031 0.298852
v 0.495484 0.101474 0.296294
v 0.495484 0.101474 0.410618
v 0.495484 0.104031 0.408060
v 0.495484 0.063083 0.296294
v 0.495484 0.060525 0.298852
v 0.500519 0.078396 0.229306
v 0.500519 0.062372 0.213282
v 0.500519 0.062372 0.142900
v 0.500519 0.078396 0.126876
v 0.495484 0.062372 0.213282
v 0.495484 0.078396 0.229306
v 0.495484 0.078396 0.126876
v 0.495484 0.062372 0.142900
v 0.500519 0.103413 0.226440
v 0.500519 0.100547 0.229306
v 0.500519 0.100547 0.126876
v 0.500519 0.103412 0.129742
v 0.495484 0.103412 0.129742
v 0.495484 0.100547 0.126876
v 0.495484 0.100547 0.229306
v 0.495484 0.103413 0.226440
v 0.495484 0.061758 -0.035897
v 0.500519 0.061758 -0.035897
v 0.495484 0.124544 -0.035897
v 0.495484 0.093151 -0.035897
v 0.500519 0.093151 -0.035897
v 0.500519 0.093151 -0.060930
v 0.500519 0.065964 -0.048414
v 0.500519 0.077455 -0.057576
v 0.500519 0.124544 -0.035897
v 0.500519 0.108848 -0.057576
v 0.500519 0.120338 -0.048414
v 0.495484 0.093151 -0.060930
v 0.495484 0.120338 -0.048414
v 0.495484 0.108848 -0.057576
v 0.495484 0.077455 -0.057576
v 0.495484 0.065964 -0.048414
v 0.495484 0.061758 0.038602
v 0.500519 0.061758 0.038602
v 0.495484 0.124544 0.038602
v 0.495484 0.093151 0.038602
v 0.500519 0.093151 0.038602
v 0.500519 0.093151 0.063635
v 0.500519 0.065964 0.051118
v 0.500519 0.077455 0.060281
v 0.500519 0.124544 0.038602
v 0.500519 0.108848 0.060281
v 0.500519 0.120338 0.051118
v 0.495484 0.093151 0.063635
v 0.495484 0.120338 0.051118
v 0.495484 0.108848 0.060281
v 0.495484 0.077455 0.060281
v 0.495484 0.065964 0.051118
v -0.396427 0.911807 0.435047
v -0.440607 0.902664 0.425893
v -0.396427 0.911800 0.447985
v -0.440607 0.889725 0.425886
v -0.396427 0.902646 0.457129
v -0.440607 0.880572 0.435030
v -0.396427 0.889708 0.457122
v -0.440607 0.880565 0.447968
v -0.396427 0.880565 0.447968
v -0.440607 0.889708 0.457122
v -0.396427 0.880572 0.435030
v -0.440607 0.902646 0.457129
v -0.396427 0.902664 0.425893
v -0.440607 0.911800 0.447985
v -0.396427 0.889725 0.425886
v -0.440607 0.911807 0.435047
v -0.396427 0.911807 -0.435047
v -0.440607 0.902664 -0.425893
v -0.396427 0.911800 -0.447985
v -0.440607 0.889725 -0.425886
v -0.396427 0.902646 -0.457129
v -0.440607 0.880572 -0.435030
v -0.396427 0.889708 -0.457122
v -0.440607 0.880565 -0.447968
v -0.396427 0.880565 -0.447968
v -0.440607 0.889708 -0.457122
v -0.396427 0.880572 -0.435030
v -0.440607 0.902646 -0.457129
v -0.396427 0.902664 -0.425893
v -0.440607 0.911800 -0.447985
v -0.396427 0.889725 -0.425886
v -0.440607 0.911807 -0.435047
v -0.396427 0.154301 0.435047
v -0.440607 0.163444 0.425893
v -0.396427 0.154308 0.447985
v -0.440607 0.176382 0.425886
v -0.396427 0.163461 0.457129
v -0.440607 0.185536 0.435030
v -0.396427 0.176400 0.457122
v -0.440607 0.185543 0.447968
v -0.396427 0.185543 0.447968
v -0.440607 0.176400 0.457122
v -0.396427 0.185536 0.435030
v -0.440607 0.163461 0.457129
v -0.396427 0.163444 0.425893
v -0.440607 0.154308 0.447985
v -0.396427 0.176382 0.425886
v -0.440607 0.154301 0.435047
v -0.396427 0.154301 -0.435047
v -0.440607 0.163444 -0.425893
v -0.396427 0.154308 -0.447985
v -0.440607 0.176382 -0.425886
v -0.396427 0.163461 -0.457129
v -0.440607 0.185536 -0.435030
v -0.396427 0.176400 -0.457122
v -0.440607 0.185543 -0.447968
v -0.396427 0.185543 -0.447968
v -0.440607 0.176400 -0.457122
v -0.396427 0.185536 -0.435030
v -0.440607 0.163461 -0.457129
v -0.396427 0.163444 -0.425893
v -0.440607 0.154308 -0.447985
v -0.396427 0.176382 -0.425886
v -0.440607 0.154301 -0.435047
v -0.480484 0.943724 0.489608
v -0.480484 0.943724 -0.489608
v -0.480484 0.479116 0.489608
v -0.480484 0.479116 -0.489608
v -0.480484 0.479116 0.000000
v -0.480484 0.943724 0.000000
v -0.480484 0.151961 -0.489608
v -0.480484 0.151961 0.489608
v -0.480484 0.151961 0.000000
v -0.440484 0.943724 -0.489608
v -0.440484 0.943724 0.489608
v -0.440484 0.479116 0.489608
v -0.440484 0.479116 -0.489608
v -0.440484 0.151961 -0.489608
v -0.440484 0.151961 0.489608
v -0.440484 0.943724 0.000000
v -0.440484 0.479116 0.000000
v -0.440484 0.151961 0.000000
v -0.480484 0.711420 0.489608
v -0.480484 0.711420 -0.489608
v -0.480484 0.711420 0.000000
v -0.440484 0.711420 0.489608
v -0.440484 0.711420 -0.489608
v -0.440484 0.711420 0.000000
v -0.480484 0.827572 0.489608
v -0.440484 0.827572 0.000000
v -0.480484 0.827572 -0.489608
v -0.480484 0.827572 0.000000
v -0.440484 0.827572 0.489608
v -0.440484 0.827572 -0.489608
v -0.480484 0.479116 0.244804
v -0.480484 0.943724 0.244804
v -0.480484 0.151961 0.244804
v -0.440484 0.943724 0.244804
v -0.440484 0.479116 0.244804
v -0.440484 0.151961 0.244804
v -0.440484 0.711420 0.244804
v -0.480484 0.711420 0.244804
v -0.440484 0.827572 0.244804
v -0.480484 0.827572 0.244804
v -0.440484 0.943724 0.367206
v -0.440484 0.479116 0.367206
v -0.440484 0.151961 0.367206
v -0.440484 0.711420 0.367206
v -0.440484 0.827572 0.367206
v -0.480484 0.479116 0.367206
v -0.480484 0.943724 0.367206
v -0.480484 0.151961 0.367206
v -0.480484 0.711420 0.367206
v -0.480484 0.827572 0.367206
v -0.440484 0.943724 0.428407
v -0.440484 0.479116 0.428407
v -0.440484 0.151961 0.428407
v -0.440484 0.711420 0.428407
v -0.440484 0.827572 0.428407
v -0.480484 0.479116 0.428407
v -0.480484 0.943724 0.428407
v -0.480484 0.151961 0.428407
v -0.480484 0.711420 0.428407
v -0.480484 0.827572 0.428407
v -0.480484 0.885648 0.489608
v -0.440484 0.885648 0.000000
v -0.480484 0.885648 -0.489608
v -0.480484 0.885648 0.000000
v -0.440484 0.885648 0.489608
v -0.440484 0.885648 -0.489608
v -0.440484 0.885648 0.244804
v -0.480484 0.885648 0.244804
v -0.480484 0.885648 0.367206
v -0.440484 0.885648 0.367206
v -0.440484 0.885648 0.428407
v -0.480484 0.885648 0.428407
v -0.480484 0.914686 0.489608
v -0.440484 0.914686 0.000000
v -0.440484 0.914686 0.244804
v -0.440484 0.914686 0.367206
v -0.440484 0.914686 0.428407
v -0.480484 0.914686 -0.489608
v -0.480484 0.914686 0.000000
v -0.440484 0.914686 0.489608
v -0.440484 0.914686 -0.489608
v -0.480484 0.914686 0.244804
v -0.480484 0.914686 0.367206
v -0.480484 0.914686 0.428407
v -0.440484 0.943724 0.459008
v -0.440484 0.479116 0.459008
v -0.440484 0.151961 0.459008
v -0.440484 0.711420 0.459008
v -0.440484 0.827572 0.459008
v -0.480484 0.479116 0.459008
v -0.480484 0.943724 0.459008
v -0.480484 0.151961 0.459008
v -0.480484 0.711420 0.459008
v -0.480484 0.827572 0.459008
v -0.480484 0.885648 0.459008
v -0.440484 0.885648 0.459008
v -0.480484 0.914686 0.459008
v -0.440484 0.914686 0.459008
v -0.299546 0.015045 0.309915
v -0.275987 0.015045 0.333474
v -0.275987 0.015045 0.366793
v -0.299546 0.015045 0.390353
v -0.332865 0.015045 0.390353
v -0.356425 0.015045 0.366793
v -0.356425 0.015045 0.333474
v -0.332865 0.015045 0.309915
v -0.308271 -0.001984 0.330977
v -0.299464 0.015388 0.309715
v -0.305152 0.002124 0.323447
v -0.302154 0.008708 0.316210
v -0.275787 0.015388 0.333392
v -0.297049 -0.001984 0.342199
v -0.282282 0.008708 0.336082
v -0.289519 0.002124 0.339080
v -0.275787 0.015388 0.366876
v -0.297049 -0.001984 0.358069
v -0.282282 0.008708 0.364186
v -0.289519 0.002124 0.361188
v -0.299464 0.015388 0.390552
v -0.308271 -0.001984 0.369291
v -0.302154 0.008708 0.384058
v -0.305152 0.002124 0.376821
v -0.332948 0.015388 0.390552
v -0.324141 -0.001984 0.369291
v -0.330258 0.008708 0.384058
v -0.327260 0.002124 0.376821
v -0.356624 0.015388 0.366876
v -0.335363 -0.001984 0.358069
v -0.350130 0.008708 0.364186
v -0.342893 0.002124 0.361188
v -0.356624 0.015388 0.333392
v -0.335363 -0.001984 0.342199
v -0.350130 0.008708 0.336082
v -0.342893 0.002124 0.339080
v -0.332948 0.015388 0.309715
v -0.324141 -0.001984 0.330977
v -0.330258 0.008708 0.316210
v -0.327260 0.002124 0.323447
v 0.379547 0.015045 0.309915
v 0.355987 0.015045 0.333474
v 0.355987 0.015045 0.366793
v 0.379547 0.015045 0.390353
v 0.412865 0.015045 0.390353
v 0.436425 0.015045 0.366793
v 0.436425 0.015045 0.333474
v 0.412865 0.015045 0.309915
v 0.388271 -0.001984 0.330977
v 0.379464 0.015388 0.309715
v 0.385152 0.002124 0.323447
v 0.382154 0.008708 0.316210
v 0.355787 0.015388 0.333392
v 0.377049 -0.001984 0.342199
v 0.362282 0.008708 0.336082
v 0.369519 0.002124 0.339080
v 0.355787 0.015388 0.366876
v 0.377049 -0.001984 0.358069
v 0.362282 0.008708 0.364186
v 0.369519 0.002124 0.361188
v 0.379464 0.015388 0.390552
v 0.388271 -0.001984 0.369291
v 0.382154 0.008708 0.384058
v 0.385152 0.002124 0.376821
v 0.412948 0.015388 0.390552
v 0.404141 -0.001984 0.369291
v 0.410258 0.008708 0.384058
v 0.407260 0.002124 0.376821
v 0.436624 0.015388 0.366876
v 0.415363 -0.001984 0.358069
v 0.430130 0.008708 0.364186
v 0.422893 0.002124 0.361188
v 0.436625 0.015388 0.333392
v 0.415363 -0.001984 0.342199
v 0.430130 0.008708 0.336082
v 0.422893 0.002124 0.339080
v 0.412948 0.015388 0.309715
v 0.404141 -0.001984 0.330977
v 0.410258 0.008708 0.316210
v 0.407260 0.002124 0.323447
v -0.299546 0.015045 -0.309915
v -0.275987 0.015045 -0.333474
v -0.275987 0.015045 -0.366793
v -0.299546 0.015045 -0.390353
v -0.332865 0.015045 -0.390353
v -0.356425 0.015045 -0.366793
v -0.356425 0.015045 -0.333474
v -0.332865 0.015045 -0.309915
v -0.308271 -0.001984 -0.330977
v -0.299464 0.015388 -0.309715
v -0.305152 0.002124 -0.323447
v -0.302154 0.008708 -0.316210
v -0.275787 0.015388 -0.333392
v -0.297049 -0.001984 -0.342199
v -0.282282 0.008708 -0.336082
v -0.289519 0.002124 -0.339080
v -0.275787 0.015388 -0.366876
v -0.297049 -0.001984 -0.358069
v -0.282282 0.008708 -0.364186
v -0.289519 0.002124 -0.361188
v -0.299464 0.015388 -0.390552
v -0.308271 -0.001984 -0.369291
v -0.302154 0.008708 -0.384058
v -0.305152 0.002124 -0.376821
v -0.332948 0.015388 -0.390552
v -0.324141 -0.001984 -0.369291
v -0.330258 0.008708 -0.384058
v -0.327260 0.002124 -0.376821
v -0.356624 0.015388 -0.366876
v -0.335363 -0.001984 -0.358069
v -0.350130 0.008708 -0.364186
v -0.342893 0.002124 -0.361188
v -0.356624 0.015388 -0.333392
v -0.335363 -0.001984 -0.342199
v -0.350130 0.008708 -0.336082
v -0.342893 0.002124 -0.339080
v -0.332948 0.015388 -0.309715
v -0.324141 -0.001984 -0.330977
v -0.330258 0.008708 -0.316210
v -0.327260 0.002124 -0.323447
v 0.379547 0.015045 -0.309915
v 0.355987 0.015045 -0.333474
v 0.355987 0.015045 -0.366793
v 0.379547 0.015045 -0.390353
v 0.412865 0.015045 -0.390353
v 0.436425 0.015045 -0.366793
v 0.436425 0.015045 -0.333474
v 0.412865 0.015045 -0.309915
v 0.388271 -0.001984 -0.330977
v 0.379464 0.015388 -0.309715
v 0.385152 0.002124 -0.323447
v 0.382154 0.008708 -0.316210
v 0.355787 0.015388 -0.333392
v 0.377049 -0.001984 -0.342199
v 0.362282 0.008708 -0.336082
v 0.369519 0.002124 -0.339080
v 0.355787 0.015388 -0.366876
v 0.377049 -0.001984 -0.358069
v 0.362282 0.008708 -0.364186
v 0.369519 0.002124 -0.361188
v 0.379464 0.015388 -0.390552
v 0.388271 -0.001984 -0.369291
v 0.382154 0.008708 -0.384058
v 0.385152 0.002124 -0.376821
v 0.412948 0.015388 -0.390552
v 0.404141 -0.001984 -0.369291
v 0.410258 0.008708 -0.384058
v 0.407260 0.002124 -0.376821
v 0.436624 0.015388 -0.366876
v 0.415363 -0.001984 -0.358069
v 0.430130 0.008708 -0.364186
v 0.422893 0.002124 -0.361188
v 0.436625 0.015388 -0.333392
v 0.415363 -0.001984 -0.342199
v 0.430130 0.008708 -0.336082
v 0.422893 0.002124 -0.339080
v 0.412948 0.015388 -0.309715
v 0.404141 -0.001984 -0.330977
v 0.410258 0.008708 -0.316210
v 0.407260 0.002124 -0.323447
v 0.495484 0.014507 0.489608
v 0.495484 0.943724 0.489608
v 0.495484 0.014507 -0.489608
v 0.495484 0.943724 -0.489608
v -0.415484 0.479116 0.474608
v -0.415484 0.479116 -0.474608
v -0.400484 0.479116 -0.459608
v 0.495484 0.943724 0.000000
v 0.495484 0.014507 0.000000
v -0.400484 0.479116 0.459608
v -0.400484 0.913724 -0.459608
v -0.400484 0.044507 0.459608
v -0.415484 0.479116 -0.489608
v -0.400484 0.913724 0.000000
v -0.400484 0.044507 -0.459608
v -0.400484 0.913724 0.459608
v -0.415484 0.479116 0.489608
v -0.415484 0.014507 0.000000
v -0.415484 0.943724 0.489608
v -0.400484 0.479116 0.000000
v -0.415484 0.943724 0.000000
v -0.415484 0.943724 -0.489608
v -0.415484 0.014507 0.489608
v 0.495484 0.479116 0.489608
v -0.415484 0.014507 -0.489608
v -0.400484 0.044507 0.000000
v -0.415484 0.928724 0.474608
v 0.495484 0.479116 -0.489608
v -0.415484 0.928724 0.000000
v -0.415484 0.928724 -0.474608
v -0.415484 0.029507 0.474608
v -0.415484 0.029507 -0.474608
v 0.495484 0.479116 0.000000
v -0.415484 0.029507 0.000000
vn 1.0000 -0.0000 -0.0000
vn -0.0000 0.5000 -0.8660
vn -0.0000 -1.0000 -0.0000
vn -0.0000 1.0000 -0.0000
vn -1.0000 -0.0000 -0.0000
vn -0.0000 -0.0000 -1.0000
vn -0.0000 -0.0000 1.0000
vn -0.0000 -0.5000 -0.8660
vn -0.0000 0.8660 0.5000
vn -0.0000 -0.8660 0.5000
vn -0.0000 -0.5000 0.8660
vn -0.0000 0.5000 0.8660
vn -0.0000 -0.8660 -0.5000
vn -0.0000 0.8660 -0.5000
vn -0.0000 -0.0002 1.0000
vn -0.0000 -0.7069 -0.7073
vn -0.0000 -1.0000 -0.0002
vn -0.0000 0.7072 -0.7070
vn -0.0000 0.0002 -1.0000
vn -0.0000 0.7069 0.7073
vn -0.0000 -0.7072 0.7070
vn -0.0000 1.0000 0.0003
vn -0.0000 1.0000 0.0002
vn -0.0000 0.7073 -0.7070
vn -0.9315 -0.3638 -0.0001
vn -0.9315 0.3638 0.0001
vn -0.9315 0.0001 -0.3637
vn -0.9315 -0.0001 0.3637
vn -0.9315 -0.2573 0.2571
vn -0.9315 0.2571 0.2573
vn -0.9315 0.2573 -0.2571
vn -0.9315 -0.2572 -0.2572
vn -0.9833 0.1760 -0.0472
vn -0.9833 0.1289 -0.1289
vn -0.9833 0.0472 -0.1760
vn -0.9833 -0.0472 -0.1760
vn -0.9833 -0.1289 -0.1289
vn -0.9833 -0.1760 -0.0472
vn -0.9833 -0.1760 0.0472
vn -0.9833 -0.1289 0.1289
vn -0.9833 -0.0472 0.1760
vn -0.9833 0.0472 0.1760
vn -0.9833 0.1289 0.1289
vn -0.9833 0.1760 0.0472
vn -0.0000 0.9659 -0.2588
vn -0.0000 0.7071 -0.7071
vn -0.0000 -0.9659 -0.2588
vn -0.0000 -0.9659 0.2588
vn -0.0000 0.2588 -0.9659
vn -0.0000 -0.2588 -0.9659
vn -0.0000 -0.7071 -0.7071
vn -0.0000 0.7071 0.7071
vn -0.0000 0.9659 0.2588
vn -0.0000 -0.7071 0.7071
vn -0.0000 -0.2588 0.9659
vn -0.0000 0.2588 0.9659
vn -0.9988 0.0343 0.0343
vn -0.9988 0.0468 0.0125
vn -0.9988 0.0343 -0.0343
vn -0.9988 0.0125 -0.0468
vn -0.9988 -0.0343 -0.0343
vn -0.9988 -0.0468 -0.0125
vn -0.9988 -0.0343 0.0343
vn -0.9988 -0.0125 0.0468
vn -0.9988 0.0468 -0.0125
vn -0.9988 -0.0468 0.0126
vn -0.9899 0.1372 -0.0368
vn -0.9899 0.1005 -0.1005
vn -0.9899 -0.1005 0.1005
vn -0.9898 -0.0368 0.1373
vn -0.9988 -0.0125 -0.0468
vn -0.9899 0.0368 0.1373
vn -0.9899 0.1005 0.1005
vn -0.9988 0.0125 0.0468
vn -0.9899 -0.0368 -0.1373
vn -0.9899 -0.1005 -0.1005
vn -0.9899 0.1372 0.0368
vn -0.9898 0.0368 -0.1373
vn -0.9899 -0.1373 -0.0368
vn -0.9899 -0.1373 0.0368
vn -0.0000 0.9255 0.3786
vn -0.0000 -0.7040 0.7102
vn -0.0000 -0.3867 -0.9222
vn -0.0000 0.9222 -0.3867
vn -0.0000 0.0044 1.0000
vn -0.0000 -0.9255 -0.3786
vn -0.0000 0.3786 -0.9255
vn -0.0000 0.7102 0.7040
vn -0.0000 -0.9222 0.3867
vn -0.0000 1.0000 -0.0044
vn -0.0000 -0.0044 -1.0000
vn -0.0000 -0.3786 0.9255
vn -0.0000 -0.7102 -0.7040
vn -0.0000 0.7040 -0.7102
vn -0.0000 0.3867 0.9222
vn -0.0000 -1.0000 0.0044
vn -0.0000 0.0014 1.0000
vn -0.0000 -0.7061 0.7081
vn -0.0000 -0.0014 -1.0000
vn -0.0000 0.7081 0.7061
vn -0.0000 -1.0000 0.0014
vn -0.0000 0.7061 -0.7081
vn -0.0000 -0.7081 -0.7061
vn -0.0000 1.0000 -0.0014
vn -0.0000 0.0014 -1.0000
vn -0.0000 -0.7061 -0.7081
vn -0.0000 -0.0014 1.0000
vn -0.0000 0.7081 -0.7061
vn -0.0000 -1.0000 -0.0014
vn -0.0000 0.7061 0.7081
vn -0.0000 -0.7081 0.7061
vn -0.0000 1.0000 0.0014
vn -0.0000 0.9479 -0.3185
vn -0.0000 0.6235 -0.7819
vn -0.0000 0.2090 -0.9779
vn -0.0000 -0.9479 -0.3185
vn -0.0000 -0.6235 -0.7819
vn -0.0000 -0.2090 -0.9779
vn -0.0000 0.9479 0.3185
vn -0.0000 0.6235 0.7819
vn -0.0000 0.2089 0.9779
vn -0.0000 -0.9479 0.3185
vn -0.0000 -0.6235 0.7819
vn -0.0000 -0.2090 0.9779
vn -0.0000 -0.3822 -0.9241
vn -0.0000 0.3832 -0.9237
vn -0.0000 0.9241 -0.3822
vn -0.0000 0.3822 0.9241
vn -0.0000 -0.3832 0.9237
vn -0.0000 -0.9237 -0.3832
vn -0.0000 0.9237 0.3832
vn -0.0000 -0.9241 0.3822
vn -0.0000 -0.3822 0.9241
vn -0.0000 0.3832 0.9237
vn -0.0000 0.9241 0.3822
vn -0.0000 0.3822 -0.9241
vn -0.0000 -0.3832 -0.9237
vn -0.0000 -0.9237 0.3832
vn -0.0000 0.9237 -0.3832
vn -0.0000 -0.9241 -0.3822
vn -0.0000 0.5026 0.8645
vn 0.8646 0.5025 -0.0000
vn -0.0000 0.5025 -0.8646
vn 0.1088 -0.9587 -0.2627
vn 0.2627 -0.9587 -0.1088
vn 0.2627 -0.9587 0.1088
vn 0.1088 -0.9587 0.2627
vn -0.1088 -0.9587 0.2627
vn -0.2627 -0.9587 0.1088
vn -0.2627 -0.9587 -0.1088
vn -0.1088 -0.9587 -0.2627
vn -0.8646 0.5024 -0.0000
vn 0.6114 0.5025 0.6113
vn 0.6114 0.5026 -0.6113
vn -0.6114 0.5025 -0.6113
vn 0.5070 -0.6971 -0.5070
vn 0.6195 -0.7418 -0.2566
vn 0.2566 -0.7418 -0.6195
vn 0.5265 -0.8217 -0.2181
vn 0.2181 -0.8217 -0.5265
vn 0.7170 -0.6971 -0.0000
vn 0.6195 -0.7418 0.2566
vn 0.5265 -0.8217 0.2181
vn 0.5070 -0.6971 0.5070
vn 0.2566 -0.7418 0.6195
vn 0.2181 -0.8217 0.5265
vn -0.0000 -0.6971 0.7170
vn -0.2566 -0.7418 0.6195
vn -0.2181 -0.8217 0.5265
vn -0.5070 -0.6971 0.5070
vn -0.6195 -0.7418 0.2566
vn -0.5265 -0.8217 0.2181
vn -0.7170 -0.6971 -0.0000
vn -0.6195 -0.7418 -0.2566
vn -0.5265 -0.8217 -0.2181
vn -0.5070 -0.6971 -0.5070
vn -0.2566 -0.7418 -0.6195
vn -0.2181 -0.8217 -0.5265
vn -0.0000 -0.6971 -0.7170
vn -0.6114 0.5024 0.6113
vn -0.8646 0.5025 -0.0000
vn -0.6114 0.5025 0.6113
vn -0.6114 0.5026 -0.6113
vn 0.6114 0.5025 -0.6113
vn -0.0000 0.5026 -0.8645
vn -0.0000 0.5025 0.8646
vn 0.6114 0.5026 0.6113
vn -0.6114 0.5024 -0.6113
vn -0.7071 -0.0000 -0.7071
vn -0.7071 -0.0000 0.7071
vn -0.7071 0.7071 -0.0000
vn -0.7071 -0.7071 -0.0000
vt 0.488851 0.636459
vt 0.488851 0.706949
vt 0.454324 0.706949
vt 0.454324 0.636459
vt 0.831916 0.844591
vt 0.831916 0.839676
vt 0.833414 0.839676
vt 0.833414 0.844591
vt 0.875840 0.232481
vt 0.863860 0.232481
vt 0.863860 0.172880
vt 0.875840 0.172880
vt 0.488851 0.819034
vt 0.488851 0.759433
vt 0.500831 0.759433
vt 0.500831 0.819034
vt 0.454324 0.759433
vt 0.488851 0.759433
vt 0.488851 0.819034
vt 0.454324 0.819034
vt 0.829323 0.243371
vt 0.829323 0.172880
vt 0.863860 0.172880
vt 0.863860 0.243371
vt 0.488851 0.879829
vt 0.454324 0.879829
vt 0.830487 0.487522
vt 0.830487 0.453019
vt 0.842467 0.453019
vt 0.842467 0.487522
vt 0.852666 0.047198
vt 0.840376 0.047198
vt 0.840376 0.020488
vt 0.852666 0.020488
vt 0.830487 0.522024
vt 0.842467 0.522024
vt 0.852666 0.104915
vt 0.840376 0.104915
vt 0.840376 0.078205
vt 0.852666 0.078205
vt 0.488851 0.607624
vt 0.488851 0.619029
vt 0.454324 0.619029
vt 0.454324 0.607624
vt 0.488851 0.597297
vt 0.488851 0.586553
vt 0.500831 0.586553
vt 0.500831 0.597297
vt 0.875840 0.010744
vt 0.863860 0.010964
vt 0.863860 0.000000
vt 0.875840 0.000000
vt 0.839236 0.282533
vt 0.844029 0.285300
vt 0.829323 0.293276
vt 0.829323 0.282533
vt 0.849562 0.285300
vt 0.854355 0.282533
vt 0.863860 0.282533
vt 0.863860 0.293276
vt 0.839236 0.267413
vt 0.836469 0.272206
vt 0.829323 0.272206
vt 0.829323 0.260800
vt 0.854355 0.267413
vt 0.849562 0.264646
vt 0.849562 0.260800
vt 0.863860 0.260800
vt 0.488851 0.586553
vt 0.488851 0.597517
vt 0.454324 0.597297
vt 0.454324 0.586553
vt 0.844029 0.264646
vt 0.844029 0.260800
vt 0.857122 0.272206
vt 0.863860 0.272206
vt 0.857122 0.277740
vt 0.863860 0.277740
vt 0.836469 0.277740
vt 0.829323 0.277740
vt 0.398110 0.823607
vt 0.395343 0.828399
vt 0.390551 0.831166
vt 0.385017 0.831166
vt 0.380225 0.828399
vt 0.377458 0.823607
vt 0.377458 0.818072
vt 0.380225 0.813280
vt 0.385017 0.810512
vt 0.390551 0.810512
vt 0.395343 0.813280
vt 0.398110 0.818072
vt 0.843965 0.518761
vt 0.843965 0.524296
vt 0.842467 0.524296
vt 0.842467 0.518761
vt 0.831916 0.834148
vt 0.831916 0.829487
vt 0.833414 0.829487
vt 0.833414 0.834148
vt 0.842802 0.418990
vt 0.842802 0.414197
vt 0.844300 0.414197
vt 0.844300 0.418990
vt 0.843965 0.529088
vt 0.842467 0.529088
vt 0.842802 0.408663
vt 0.844300 0.408663
vt 0.831916 0.829487
vt 0.831916 0.834146
vt 0.830418 0.834146
vt 0.830418 0.829487
vt 0.831916 0.839675
vt 0.831916 0.844590
vt 0.830418 0.844590
vt 0.830418 0.839675
vt 0.843965 0.513969
vt 0.842467 0.513969
vt 0.842802 0.403870
vt 0.844300 0.403870
vt 0.863860 0.049906
vt 0.875840 0.049906
vt 0.875840 0.120396
vt 0.863860 0.120396
vt 0.488851 0.879829
vt 0.500831 0.879829
vt 0.875840 0.293276
vt 0.863860 0.293276
vt 0.488851 0.706949
vt 0.500831 0.706949
vt 0.848614 0.134744
vt 0.852826 0.134744
vt 0.852826 0.157827
vt 0.848614 0.157827
vt 0.829323 0.060795
vt 0.863860 0.060795
vt 0.863860 0.120396
vt 0.829323 0.120396
vt 0.829323 0.000000
vt 0.863860 0.000000
vt 0.488851 0.636459
vt 0.500831 0.636459
vt 0.454324 0.626811
vt 0.488851 0.626811
vt 0.488851 0.626811
vt 0.488851 0.619029
vt 0.500831 0.619029
vt 0.500831 0.626811
vt 0.863860 0.040258
vt 0.863860 0.032476
vt 0.875840 0.032476
vt 0.875840 0.040258
vt 0.844862 0.254502
vt 0.845911 0.255550
vt 0.847394 0.255550
vt 0.848443 0.254501
vt 0.844862 0.253018
vt 0.829323 0.253018
vt 0.848442 0.253018
vt 0.863860 0.253018
vt 0.847393 0.251969
vt 0.845910 0.251969
vt 0.488851 0.602090
vt 0.454324 0.602090
vt 0.488851 0.607624
vt 0.500831 0.607624
vt 0.488851 0.602090
vt 0.500831 0.602090
vt 0.875840 0.015537
vt 0.863860 0.015537
vt 0.863860 0.021071
vt 0.875840 0.021071
vt 0.725400 0.289785
vt 0.725400 0.291266
vt 0.724753 0.291266
vt 0.724753 0.289785
vt 0.712453 0.291995
vt 0.711404 0.293044
vt 0.709921 0.293044
vt 0.708872 0.291995
vt 0.708872 0.290512
vt 0.709921 0.289463
vt 0.711404 0.289463
vt 0.712453 0.290512
vt 0.724184 0.288782
vt 0.724184 0.289831
vt 0.723538 0.289831
vt 0.723538 0.288782
vt 0.724184 0.291314
vt 0.723538 0.291314
vt 0.725400 0.292362
vt 0.725400 0.291266
vt 0.726046 0.291266
vt 0.726046 0.292362
vt 0.725400 0.289785
vt 0.726046 0.289785
vt 0.725400 0.292363
vt 0.724753 0.292363
vt 0.724184 0.292363
vt 0.723538 0.292363
vt 0.556487 0.293213
vt 0.556487 0.291729
vt 0.557134 0.291729
vt 0.557134 0.293213
vt 0.545475 0.799499
vt 0.545475 0.822582
vt 0.541264 0.822582
vt 0.541264 0.799499
vt 0.532723 0.846522
vt 0.532723 0.823439
vt 0.534231 0.823439
vt 0.534231 0.846522
vt 0.535739 0.823439
vt 0.535739 0.846522
vt 0.720618 0.293044
vt 0.720618 0.288836
vt 0.722126 0.288836
vt 0.722126 0.293044
vt 0.720618 0.288836
vt 0.720618 0.293044
vt 0.719110 0.293044
vt 0.719110 0.288836
vt 0.545476 0.799499
vt 0.541264 0.799499
vt 0.541264 0.776415
vt 0.545476 0.776415
vt 0.854754 0.453019
vt 0.854754 0.479728
vt 0.842467 0.479728
vt 0.842467 0.453019
vt 0.845483 0.506438
vt 0.845483 0.479728
vt 0.846992 0.479728
vt 0.846992 0.506438
vt 0.848500 0.479728
vt 0.848500 0.506438
vt 0.846992 0.479728
vt 0.412130 0.842844
vt 0.412130 0.830566
vt 0.413638 0.830566
vt 0.413638 0.842844
vt 0.404563 0.830566
vt 0.404563 0.842845
vt 0.403055 0.842845
vt 0.403055 0.830566
vt 0.833414 0.821956
vt 0.845704 0.821956
vt 0.845704 0.848666
vt 0.833414 0.848666
vt 0.839786 0.346696
vt 0.839786 0.319986
vt 0.852073 0.319986
vt 0.852073 0.346696
vt 0.845704 0.821956
vt 0.847212 0.821956
vt 0.847212 0.848666
vt 0.848720 0.795246
vt 0.848720 0.821956
vt 0.847212 0.821956
vt 0.847212 0.795246
vt 0.406071 0.842844
vt 0.406071 0.830566
vt 0.407579 0.830566
vt 0.407579 0.842844
vt 0.416654 0.830566
vt 0.416654 0.842845
vt 0.415146 0.842845
vt 0.415146 0.830566
vt 0.836686 0.420138
vt 0.848977 0.420138
vt 0.848977 0.446848
vt 0.836686 0.446848
vt 0.715782 0.290690
vt 0.716757 0.289715
vt 0.718135 0.289715
vt 0.719110 0.290690
vt 0.719110 0.292069
vt 0.718135 0.293044
vt 0.716756 0.293044
vt 0.715782 0.292069
vt 0.715583 0.291987
vt 0.714725 0.292845
vt 0.713511 0.292845
vt 0.712653 0.291987
vt 0.712653 0.290773
vt 0.713511 0.289915
vt 0.714725 0.289915
vt 0.715583 0.290773
vt 0.724753 0.288407
vt 0.725322 0.288407
vt 0.725322 0.289785
vt 0.557703 0.291834
vt 0.557703 0.293213
vt 0.557134 0.291834
vt 0.725891 0.287388
vt 0.725891 0.288406
vt 0.725322 0.288406
vt 0.725322 0.287388
vt 0.724184 0.290009
vt 0.724184 0.289034
vt 0.724753 0.289034
vt 0.724753 0.290009
vt 0.725891 0.289784
vt 0.725322 0.289784
vt 0.724184 0.291388
vt 0.724753 0.291388
vt 0.724753 0.287388
vt 0.725322 0.287388
vt 0.715782 0.292069
vt 0.714807 0.293044
vt 0.712453 0.290690
vt 0.713428 0.289715
vt 0.714807 0.289715
vt 0.715782 0.290690
vt 0.713428 0.293044
vt 0.712453 0.292069
vt 0.438209 0.817853
vt 0.438209 0.823226
vt 0.435523 0.827879
vt 0.430872 0.830566
vt 0.425500 0.830566
vt 0.420848 0.827879
vt 0.418162 0.823226
vt 0.418162 0.817853
vt 0.420848 0.813199
vt 0.425500 0.810512
vt 0.430872 0.810512
vt 0.435523 0.813199
vt 0.415880 0.822616
vt 0.413803 0.826213
vt 0.410207 0.828289
vt 0.406054 0.828289
vt 0.402457 0.826213
vt 0.400381 0.822616
vt 0.400381 0.818463
vt 0.402457 0.814866
vt 0.406054 0.812789
vt 0.410207 0.812789
vt 0.413803 0.814866
vt 0.415880 0.818463
vt 0.830418 0.839513
vt 0.830418 0.844167
vt 0.828921 0.844167
vt 0.828921 0.839513
vt 0.398110 0.840593
vt 0.398110 0.835220
vt 0.399608 0.835220
vt 0.399608 0.840593
vt 0.401105 0.830566
vt 0.401105 0.835338
vt 0.399608 0.835338
vt 0.399608 0.830566
vt 0.401105 0.840705
vt 0.401105 0.845231
vt 0.399608 0.845231
vt 0.399608 0.840705
vt 0.830418 0.834140
vt 0.828921 0.834140
vt 0.828921 0.829487
vt 0.398110 0.830566
vt 0.399608 0.830566
vt 0.418162 0.845231
vt 0.418162 0.840706
vt 0.419660 0.840706
vt 0.419660 0.845231
vt 0.418162 0.835339
vt 0.418162 0.830566
vt 0.419660 0.830566
vt 0.419660 0.835339
vt 0.398110 0.845246
vt 0.399608 0.845246
vt 0.415046 0.813630
vt 0.417574 0.818010
vt 0.415046 0.827448
vt 0.410666 0.829977
vt 0.401229 0.827448
vt 0.398700 0.823068
vt 0.401229 0.813630
vt 0.405609 0.811102
vt 0.417574 0.823068
vt 0.398700 0.818010
vt 0.398110 0.817853
vt 0.400797 0.813199
vt 0.415476 0.827879
vt 0.410823 0.830566
vt 0.405609 0.829977
vt 0.405450 0.830566
vt 0.400797 0.827879
vt 0.410666 0.811102
vt 0.410823 0.810512
vt 0.415476 0.813199
vt 0.398110 0.823226
vt 0.405450 0.810512
vt 0.418162 0.817853
vt 0.418162 0.823226
vt 0.836686 0.293276
vt 0.839786 0.293276
vt 0.839786 0.318369
vt 0.836686 0.318369
vt 0.544364 0.617916
vt 0.541264 0.617916
vt 0.541264 0.586553
vt 0.544364 0.586553
vt 0.830487 0.412767
vt 0.833587 0.412767
vt 0.833587 0.453019
vt 0.830487 0.453019
vt 0.836686 0.395136
vt 0.839786 0.395136
vt 0.839786 0.420138
vt 0.836686 0.420138
vt 0.836686 0.412414
vt 0.833587 0.412414
vt 0.833587 0.367905
vt 0.836686 0.367905
vt 0.544364 0.744777
vt 0.541264 0.744777
vt 0.541264 0.703546
vt 0.544364 0.703546
vt 0.830487 0.326315
vt 0.833587 0.326315
vt 0.833587 0.368274
vt 0.830487 0.368274
vt 0.836686 0.326069
vt 0.833587 0.326069
vt 0.833587 0.293276
vt 0.836686 0.293276
vt 0.544364 0.658998
vt 0.541264 0.658998
vt 0.836686 0.452821
vt 0.833587 0.452821
vt 0.544364 0.776415
vt 0.541264 0.776415
vt 0.830487 0.293276
vt 0.833587 0.293276
vt 0.865791 0.795246
vt 0.824648 0.778199
vt 0.793158 0.746698
vt 0.782786 0.721651
vt 0.782786 0.644883
vt 0.793158 0.619835
vt 0.824648 0.588335
vt 0.865791 0.571287
vt 0.910324 0.571287
vt 0.951468 0.588335
vt 0.982958 0.619835
vt 1.000000 0.660992
vt 1.000000 0.705540
vt 0.982958 0.746698
vt 0.951468 0.778198
vt 0.910324 0.795246
vt 0.371297 0.810512
vt 0.326753 0.810512
vt 0.285599 0.793465
vt 0.254101 0.761964
vt 0.237054 0.720807
vt 0.237054 0.676259
vt 0.254101 0.635101
vt 0.285598 0.603601
vt 0.326752 0.586553
vt 0.371297 0.586553
vt 0.412451 0.603601
vt 0.443949 0.635101
vt 0.454324 0.660149
vt 0.454324 0.736917
vt 0.443949 0.761964
vt 0.412452 0.793465
vt 0.825526 0.278357
vt 0.825526 0.284037
vt 0.822426 0.284037
vt 0.822426 0.278357
vt 0.813127 0.288060
vt 0.813127 0.292075
vt 0.810028 0.292075
vt 0.810028 0.288060
vt 0.819327 0.284028
vt 0.819327 0.278349
vt 0.822426 0.278349
vt 0.822426 0.284028
vt 0.825526 0.288233
vt 0.822426 0.288233
vt 0.813127 0.282375
vt 0.810028 0.282375
vt 0.819327 0.288233
vt 0.813127 0.278349
vt 0.810028 0.278349
vt 0.702673 0.293044
vt 0.702673 0.287358
vt 0.705772 0.287358
vt 0.705772 0.293044
vt 0.544528 0.734482
vt 0.544528 0.731878
vt 0.545234 0.731878
vt 0.545234 0.734482
vt 0.587956 0.291729
vt 0.583937 0.287709
vt 0.583937 0.282024
vt 0.587956 0.278003
vt 0.593639 0.278003
vt 0.597658 0.282024
vt 0.597658 0.287709
vt 0.593639 0.291729
vt 0.565113 0.289124
vt 0.567607 0.286630
vt 0.570212 0.287709
vt 0.566192 0.291729
vt 0.567607 0.283103
vt 0.570212 0.282024
vt 0.565113 0.280609
vt 0.566192 0.278003
vt 0.561586 0.280609
vt 0.560507 0.278003
vt 0.559092 0.283103
vt 0.556487 0.282024
vt 0.559092 0.286630
vt 0.556487 0.287709
vt 0.561586 0.289124
vt 0.560507 0.291729
vt 0.792034 0.287358
vt 0.788507 0.287358
vt 0.786013 0.284864
vt 0.786013 0.281337
vt 0.788507 0.278843
vt 0.792034 0.278843
vt 0.794528 0.281337
vt 0.794528 0.284864
vt 0.545234 0.725746
vt 0.545234 0.728355
vt 0.544528 0.728355
vt 0.544528 0.725746
vt 0.545234 0.731878
vt 0.544528 0.731878
vt 0.544795 0.696407
vt 0.544795 0.692880
vt 0.545501 0.692880
vt 0.545501 0.696407
vt 0.544528 0.738005
vt 0.545234 0.738005
vt 0.722832 0.288836
vt 0.722832 0.292363
vt 0.722126 0.292363
vt 0.722126 0.288836
vt 0.544795 0.698905
vt 0.545501 0.698905
vt 0.544795 0.690389
vt 0.545501 0.690389
vt 0.825526 0.278357
vt 0.828625 0.278357
vt 0.828625 0.284037
vt 0.825526 0.284037
vt 0.816227 0.282364
vt 0.813127 0.282364
vt 0.816227 0.278349
vt 0.819327 0.284028
vt 0.816227 0.284028
vt 0.828625 0.288231
vt 0.825526 0.288231
vt 0.816227 0.288049
vt 0.813127 0.288049
vt 0.819327 0.288235
vt 0.816227 0.288235
vt 0.816227 0.292075
vt 0.813127 0.292075
vt 0.705772 0.287358
vt 0.708872 0.287358
vt 0.708872 0.293044
vt 0.705772 0.293044
vt 0.545234 0.740607
vt 0.544528 0.740607
vt 0.544528 0.738005
vt 0.545234 0.738005
vt 0.607361 0.291729
vt 0.601677 0.291729
vt 0.597658 0.282024
vt 0.601677 0.278003
vt 0.607361 0.278003
vt 0.611380 0.282024
vt 0.611380 0.287709
vt 0.575311 0.289124
vt 0.574232 0.291729
vt 0.572817 0.286630
vt 0.572817 0.283103
vt 0.574232 0.278003
vt 0.575311 0.280609
vt 0.579917 0.278003
vt 0.578838 0.280609
vt 0.583937 0.282024
vt 0.581332 0.283103
vt 0.583937 0.287709
vt 0.581332 0.286630
vt 0.579917 0.291729
vt 0.578838 0.289124
vt 0.779992 0.287358
vt 0.777498 0.284864
vt 0.777498 0.281337
vt 0.779992 0.278843
vt 0.783519 0.278843
vt 0.786013 0.281337
vt 0.786013 0.284864
vt 0.783519 0.287358
vt 0.544528 0.719613
vt 0.545234 0.719613
vt 0.545234 0.722223
vt 0.544528 0.722223
vt 0.545234 0.725746
vt 0.544528 0.725746
vt 0.544795 0.701402
vt 0.545501 0.701402
vt 0.545501 0.704929
vt 0.544795 0.704929
vt 0.545234 0.744131
vt 0.544528 0.744131
vt 0.723538 0.292363
vt 0.722832 0.292363
vt 0.722832 0.288836
vt 0.723538 0.288836
vt 0.545501 0.707420
vt 0.544795 0.707420
vt 0.839786 0.373406
vt 0.839786 0.346696
vt 0.852073 0.346696
vt 0.852073 0.373406
vt 0.541264 0.849292
vt 0.542772 0.822582
vt 0.542772 0.849292
vt 0.847212 0.795246
vt 0.847212 0.821956
vt 0.845704 0.821956
vt 0.845704 0.795246
vt 0.410622 0.842844
vt 0.410622 0.830566
vt 0.412130 0.830566
vt 0.412130 0.842844
vt 0.415146 0.830566
vt 0.415146 0.842845
vt 0.413638 0.842845
vt 0.413638 0.830566
vt 0.839786 0.293276
vt 0.852076 0.293276
vt 0.852076 0.319986
vt 0.839786 0.319986
vt 0.839786 0.400116
vt 0.839786 0.373406
vt 0.852073 0.373406
vt 0.852073 0.400116
vt 0.848348 0.556866
vt 0.848348 0.530156
vt 0.849856 0.530156
vt 0.849856 0.556866
vt 0.848348 0.530156
vt 0.848348 0.556866
vt 0.846840 0.556866
vt 0.846840 0.530156
vt 0.409113 0.842844
vt 0.409113 0.830566
vt 0.410622 0.830566
vt 0.410622 0.842844
vt 0.406071 0.842845
vt 0.404563 0.842845
vt 0.404563 0.830566
vt 0.833414 0.795246
vt 0.544528 0.712055
vt 0.544528 0.710052
vt 0.545501 0.710052
vt 0.545501 0.712055
vt 0.825354 0.829487
vt 0.826836 0.829884
vt 0.827920 0.830968
vt 0.828317 0.832450
vt 0.828317 0.844004
vt 0.827920 0.845486
vt 0.826836 0.846570
vt 0.825354 0.846967
vt 0.823350 0.846967
vt 0.821869 0.846570
vt 0.820785 0.845486
vt 0.820388 0.844004
vt 0.820388 0.832450
vt 0.820785 0.830968
vt 0.821869 0.829884
vt 0.823350 0.829487
vt 0.545501 0.716148
vt 0.545501 0.718151
vt 0.544528 0.718151
vt 0.544528 0.716148
vt 0.545337 0.604721
vt 0.545337 0.616275
vt 0.544364 0.616275
vt 0.544364 0.604721
vt 0.524791 0.826402
vt 0.525188 0.824920
vt 0.526273 0.823836
vt 0.527755 0.823439
vt 0.529759 0.823439
vt 0.531241 0.823836
vt 0.532326 0.824920
vt 0.532723 0.826402
vt 0.532723 0.837956
vt 0.532326 0.839438
vt 0.531241 0.840522
vt 0.529759 0.840919
vt 0.527755 0.840919
vt 0.526273 0.840522
vt 0.525188 0.839438
vt 0.524791 0.837956
vt 0.545337 0.589119
vt 0.544364 0.589119
vt 0.544364 0.587638
vt 0.545337 0.587638
vt 0.544364 0.586553
vt 0.545337 0.586553
vt 0.545501 0.713517
vt 0.544528 0.713517
vt 0.544364 0.603239
vt 0.545337 0.603239
vt 0.544528 0.707420
vt 0.545501 0.707420
vt 0.545501 0.708554
vt 0.544528 0.708554
vt 0.545337 0.617757
vt 0.544364 0.617757
vt 0.544528 0.713517
vt 0.545501 0.713517
vt 0.545501 0.714650
vt 0.544528 0.714650
vt 0.544364 0.600673
vt 0.545337 0.600673
vt 0.545337 0.602155
vt 0.544364 0.602155
vt 0.545337 0.603240
vt 0.544364 0.603240
vt 0.545501 0.719613
vt 0.544528 0.719613
vt 0.377458 0.810512
vt 0.377458 0.837222
vt 0.355680 0.837222
vt 0.355680 0.810512
vt 0.543967 0.849292
vt 0.543967 0.822582
vt 0.545475 0.849292
vt 0.848720 0.821956
vt 0.848720 0.848666
vt 0.847212 0.848666
vt 0.846992 0.528200
vt 0.848500 0.528200
vt 0.846992 0.528200
vt 0.845483 0.528200
vt 0.333897 0.810512
vt 0.355680 0.810512
vt 0.355680 0.837222
vt 0.333897 0.837222
vt 0.829256 0.795247
vt 0.833413 0.799406
vt 0.833413 0.828721
vt 0.832648 0.829487
vt 0.821153 0.829487
vt 0.820388 0.828721
vt 0.820388 0.796013
vt 0.821153 0.795247
vt 0.418162 0.831366
vt 0.418162 0.842852
vt 0.416654 0.842852
vt 0.416654 0.831366
vt 0.407605 0.839463
vt 0.407605 0.831367
vt 0.409114 0.831367
vt 0.409114 0.839463
vt 0.842467 0.513202
vt 0.842467 0.483888
vt 0.843975 0.483888
vt 0.843975 0.513202
vt 0.843975 0.479728
vt 0.818507 0.534316
vt 0.822666 0.530156
vt 0.830770 0.530156
vt 0.831536 0.530922
vt 0.831536 0.563630
vt 0.830770 0.564396
vt 0.819273 0.564396
vt 0.818507 0.563630
vt 0.407605 0.830566
vt 0.409114 0.830566
vt 0.416654 0.830566
vt 0.418162 0.830566
vt 0.843975 0.513968
vt 0.842467 0.513968
vt 0.439717 0.810512
vt 0.439717 0.843221
vt 0.438209 0.843221
vt 0.438209 0.810512
vt 0.836333 0.560834
vt 0.831536 0.556035
vt 0.831536 0.534955
vt 0.836333 0.530156
vt 0.842965 0.530156
vt 0.843823 0.531015
vt 0.843823 0.559976
vt 0.842966 0.560834
vt 0.833503 0.522921
vt 0.833503 0.529548
vt 0.831995 0.529548
vt 0.831995 0.522921
vt 0.830487 0.529549
vt 0.830487 0.522921
vt 0.831995 0.522921
vt 0.831995 0.529549
vt 0.442033 0.815311
vt 0.446832 0.810512
vt 0.453465 0.810512
vt 0.454324 0.811371
vt 0.454324 0.840332
vt 0.453465 0.841190
vt 0.446832 0.841190
vt 0.442033 0.836391
vt 0.441226 0.815311
vt 0.439717 0.815311
vt 0.439717 0.810512
vt 0.441226 0.810512
vt 0.439717 0.836391
vt 0.441226 0.836391
vt 0.441226 0.841190
vt 0.439717 0.841190
vt 0.831995 0.522024
vt 0.833503 0.522024
vt 0.846840 0.530156
vt 0.846840 0.559117
vt 0.845332 0.559117
vt 0.845332 0.530156
vt 0.845332 0.556217
vt 0.843823 0.556217
vt 0.843823 0.533905
vt 0.845332 0.533905
vt 0.782786 0.802744
vt 0.784046 0.798995
vt 0.787487 0.796251
vt 0.792188 0.795246
vt 0.792188 0.802744
vt 0.810989 0.825056
vt 0.810989 0.832554
vt 0.806289 0.831549
vt 0.802849 0.828805
vt 0.801589 0.825056
vt 0.820388 0.825056
vt 0.810989 0.802744
vt 0.820388 0.802744
vt 0.801589 0.802744
vt 0.782786 0.825056
vt 0.792188 0.825056
vt 0.796889 0.796251
vt 0.800330 0.798995
vt 0.801589 0.802744
vt 0.845332 0.559966
vt 0.843823 0.559966
vt 0.839786 0.403870
vt 0.841294 0.403870
vt 0.841294 0.407433
vt 0.839786 0.407433
vt 0.841294 0.412175
vt 0.839786 0.412175
vt 0.843975 0.505790
vt 0.845483 0.505790
vt 0.845483 0.509538
vt 0.843975 0.509538
vt 0.841294 0.420138
vt 0.839786 0.420138
vt 0.839786 0.416826
vt 0.841294 0.416826
vt 0.819128 0.828805
vt 0.815688 0.831549
vt 0.792188 0.832554
vt 0.787487 0.831549
vt 0.784046 0.828805
vt 0.802849 0.798995
vt 0.806289 0.796251
vt 0.810989 0.795246
vt 0.801589 0.825056
vt 0.800330 0.828805
vt 0.796889 0.831549
vt 0.843823 0.530156
vt 0.845332 0.530156
vt 0.842802 0.403870
vt 0.842802 0.407435
vt 0.841294 0.407435
vt 0.841294 0.403870
vt 0.842802 0.412177
vt 0.841294 0.412177
vt 0.843975 0.483477
vt 0.845483 0.483477
vt 0.841294 0.420138
vt 0.841294 0.416827
vt 0.842802 0.416827
vt 0.842802 0.420138
vt 0.815688 0.796251
vt 0.819128 0.798995
vt 0.702673 0.291235
vt 0.698802 0.291235
vt 0.698802 0.278003
vt 0.702673 0.278003
vt 0.695941 0.291235
vt 0.695941 0.278003
vt 0.658402 0.278003
vt 0.662272 0.278003
vt 0.662272 0.291235
vt 0.658402 0.291235
vt 0.636707 0.278003
vt 0.639445 0.278003
vt 0.639445 0.291235
vt 0.636707 0.291235
vt 0.798403 0.292075
vt 0.794528 0.292075
vt 0.794528 0.278843
vt 0.798403 0.278843
vt 0.630090 0.278003
vt 0.632832 0.278003
vt 0.632832 0.291235
vt 0.630090 0.291235
vt 0.727996 0.278003
vt 0.730736 0.280743
vt 0.730736 0.284618
vt 0.727996 0.287358
vt 0.724121 0.287358
vt 0.721382 0.284618
vt 0.721382 0.280743
vt 0.724121 0.278003
vt 0.655536 0.278003
vt 0.655536 0.291235
vt 0.770885 0.278003
vt 0.774759 0.278003
vt 0.777498 0.280743
vt 0.777498 0.284618
vt 0.774759 0.287358
vt 0.770885 0.287358
vt 0.768146 0.284618
vt 0.768146 0.280743
vt 0.689209 0.278003
vt 0.689209 0.291235
vt 0.685338 0.291235
vt 0.685338 0.278003
vt 0.682475 0.291235
vt 0.682475 0.278003
vt 0.671871 0.291235
vt 0.671871 0.278003
vt 0.675742 0.278003
vt 0.675742 0.291235
vt 0.642184 0.278003
vt 0.642184 0.291235
vt 0.639445 0.291235
vt 0.639445 0.278003
vt 0.798403 0.292075
vt 0.798403 0.278843
vt 0.802278 0.278843
vt 0.802278 0.292075
vt 0.648800 0.278003
vt 0.648800 0.291235
vt 0.646059 0.291235
vt 0.646059 0.278003
vt 0.733476 0.278003
vt 0.737351 0.278003
vt 0.740090 0.280743
vt 0.740090 0.284618
vt 0.737350 0.287358
vt 0.733476 0.287358
vt 0.730736 0.284618
vt 0.730736 0.280743
vt 0.669007 0.291235
vt 0.669007 0.278003
vt 0.765407 0.278003
vt 0.768146 0.280743
vt 0.768146 0.284618
vt 0.765407 0.287358
vt 0.761533 0.287358
vt 0.758794 0.284618
vt 0.758794 0.280743
vt 0.761533 0.278003
vt 0.665136 0.291235
vt 0.665136 0.278003
vt 0.620735 0.278003
vt 0.620735 0.291235
vt 0.617993 0.291235
vt 0.617993 0.278003
vt 0.682475 0.278003
vt 0.682475 0.291235
vt 0.678604 0.291235
vt 0.678604 0.278003
vt 0.662272 0.291235
vt 0.614118 0.291235
vt 0.614118 0.278003
vt 0.675742 0.291235
vt 0.675742 0.278003
vt 0.709287 0.287358
vt 0.705413 0.287358
vt 0.702673 0.284618
vt 0.702673 0.280743
vt 0.705413 0.278003
vt 0.709287 0.278003
vt 0.712027 0.280743
vt 0.712027 0.284618
vt 0.611380 0.291235
vt 0.611380 0.278003
vt 0.802278 0.292075
vt 0.802278 0.278843
vt 0.806153 0.278843
vt 0.806153 0.292075
vt 0.742829 0.287358
vt 0.740090 0.280743
vt 0.742829 0.278003
vt 0.746703 0.278003
vt 0.749442 0.280743
vt 0.749442 0.284618
vt 0.746703 0.287358
vt 0.651666 0.278003
vt 0.655536 0.291235
vt 0.651666 0.291235
vt 0.620735 0.278003
vt 0.623476 0.278003
vt 0.623476 0.291235
vt 0.620735 0.291235
vt 0.692070 0.291235
vt 0.692070 0.278003
vt 0.627351 0.278003
vt 0.627351 0.291235
vt 0.689209 0.278003
vt 0.714767 0.287358
vt 0.712027 0.284618
vt 0.712027 0.280743
vt 0.714767 0.278003
vt 0.718642 0.278003
vt 0.721382 0.280743
vt 0.721381 0.284618
vt 0.718642 0.287358
vt 0.630090 0.278003
vt 0.630090 0.291235
vt 0.806153 0.292075
vt 0.806153 0.278843
vt 0.810028 0.278843
vt 0.756055 0.287358
vt 0.752182 0.287358
vt 0.749442 0.284618
vt 0.749442 0.280743
vt 0.752182 0.278003
vt 0.756055 0.278003
vt 0.758794 0.280743
vt 0.758794 0.284618
vt 0.554368 0.717925
vt 0.545671 0.717925
vt 0.545671 0.571287
vt 0.554368 0.571287
vt 0.818507 0.301964
vt 0.818507 0.293276
vt 0.830487 0.293276
vt 0.830487 0.301964
vt 0.512811 0.595718
vt 0.500831 0.595718
vt 0.500831 0.586553
vt 0.512811 0.586553
vt 0.818507 0.432278
vt 0.830487 0.432278
vt 0.830487 0.530156
vt 0.818507 0.530156
vt 0.684811 0.791244
vt 0.684811 0.717925
vt 0.782786 0.717925
vt 0.782786 0.791244
vt 0.512811 0.879829
vt 0.500831 0.879829
vt 0.500831 0.733191
vt 0.512811 0.733191
vt 0.684811 0.571287
vt 0.782786 0.571287
vt 0.554368 0.791244
vt 0.545671 0.791244
vt 0.524791 0.725558
vt 0.536771 0.725558
vt 0.536771 0.823439
vt 0.524791 0.823439
vt 0.524791 0.595241
vt 0.524791 0.586553
vt 0.536771 0.586553
vt 0.536771 0.595241
vt 0.008694 0.659872
vt 0.008694 0.733191
vt 0.000000 0.733191
vt 0.000000 0.659872
vt 0.069552 0.733191
vt 0.139104 0.733191
vt 0.139104 0.879829
vt 0.069552 0.879829
vt 0.237054 0.659872
vt 0.237054 0.733191
vt 0.139104 0.659872
vt 0.237054 0.879829
vt 0.524791 0.659872
vt 0.524791 0.733191
vt 0.512811 0.659872
vt 0.524791 0.879829
vt 0.034776 0.733191
vt 0.034776 0.879829
vt 0.069552 0.659872
vt 0.524791 0.656056
vt 0.536771 0.656056
vt 0.615241 0.791244
vt 0.615241 0.717925
vt 0.818507 0.362777
vt 0.830487 0.362777
vt 0.615241 0.571287
vt 0.017388 0.733191
vt 0.017388 0.879829
vt 0.034776 0.659872
vt 0.524791 0.621304
vt 0.536771 0.621304
vt 0.580456 0.791244
vt 0.580456 0.717925
vt 0.818507 0.328027
vt 0.830487 0.328027
vt 0.580456 0.571287
vt 0.615241 0.827904
vt 0.580456 0.827904
vt 0.069552 0.623212
vt 0.034776 0.623212
vt 0.684811 0.827904
vt 0.139104 0.623212
vt 0.524791 0.623212
vt 0.512811 0.623212
vt 0.237054 0.623212
vt 0.008694 0.623212
vt 0.000000 0.623212
vt 0.554368 0.827904
vt 0.545671 0.827904
vt 0.782786 0.827904
vt 0.500831 0.659872
vt 0.684811 0.846233
vt 0.782786 0.846233
vt 0.554368 0.846233
vt 0.545671 0.846233
vt 0.008694 0.604883
vt 0.000000 0.604883
vt 0.237054 0.604883
vt 0.139104 0.604883
vt 0.524791 0.604883
vt 0.512811 0.604883
vt 0.069552 0.604883
vt 0.615241 0.846233
vt 0.034776 0.604883
vt 0.580456 0.846233
vt 0.500831 0.623212
vt 0.615241 0.855398
vt 0.580456 0.855398
vt 0.069552 0.595718
vt 0.034776 0.595718
vt 0.684811 0.855398
vt 0.139104 0.595718
vt 0.524791 0.595718
vt 0.237054 0.595718
vt 0.008694 0.595718
vt 0.000000 0.595718
vt 0.554368 0.855398
vt 0.545671 0.855398
vt 0.782786 0.855398
vt 0.500831 0.604883
vt 0.563064 0.855398
vt 0.563064 0.846233
vt 0.017388 0.604883
vt 0.017388 0.595718
vt 0.017388 0.623212
vt 0.563064 0.827904
vt 0.563064 0.791244
vt 0.017388 0.659872
vt 0.008694 0.879829
vt 0.524791 0.603929
vt 0.536771 0.603929
vt 0.563064 0.717925
vt 0.818507 0.310652
vt 0.830487 0.310652
vt 0.563064 0.571287
vt 0.000000 0.879829
vt 0.017388 0.586553
vt 0.008694 0.586553
vt 0.563064 0.864563
vt 0.554368 0.864563
vt 0.034776 0.586553
vt 0.580456 0.864563
vt 0.684811 0.864563
vt 0.782786 0.864563
vt 0.545671 0.864563
vt 0.000000 0.586553
vt 0.237054 0.586553
vt 0.139104 0.586553
vt 0.524791 0.586553
vt 0.069552 0.586553
vt 0.615241 0.864563
vt 0.544469 0.624873
vt 0.544469 0.634852
vt 0.544364 0.634876
vt 0.544364 0.624848
vt 0.545441 0.586578
vt 0.545441 0.596557
vt 0.545337 0.596581
vt 0.545337 0.586553
vt 0.544901 0.673294
vt 0.544901 0.683273
vt 0.544795 0.683298
vt 0.544795 0.673270
vt 0.303319 0.824995
vt 0.299958 0.828355
vt 0.295204 0.828355
vt 0.291843 0.824994
vt 0.291843 0.820241
vt 0.295204 0.816880
vt 0.299958 0.816880
vt 0.303319 0.820241
vt 0.545649 0.596606
vt 0.545649 0.606585
vt 0.545545 0.606610
vt 0.545545 0.596581
vt 0.544795 0.617816
vt 0.544692 0.617757
vt 0.545223 0.690329
vt 0.545120 0.690389
vt 0.545223 0.666238
vt 0.545120 0.666178
vt 0.309687 0.827632
vt 0.302595 0.834723
vt 0.301790 0.832778
vt 0.307741 0.826826
vt 0.300892 0.830611
vt 0.305574 0.825929
vt 0.401105 0.840595
vt 0.401105 0.830566
vt 0.403055 0.831372
vt 0.403055 0.839789
vt 0.293373 0.832778
vt 0.294270 0.830611
vt 0.292567 0.834723
vt 0.285476 0.827632
vt 0.287421 0.826826
vt 0.289588 0.825929
vt 0.285476 0.817604
vt 0.287421 0.818409
vt 0.289588 0.819307
vt 0.292567 0.810512
vt 0.293373 0.812458
vt 0.294270 0.814625
vt 0.831536 0.570862
vt 0.831536 0.560834
vt 0.833512 0.561640
vt 0.833512 0.570057
vt 0.301790 0.812458
vt 0.300892 0.814625
vt 0.302595 0.810512
vt 0.309687 0.817604
vt 0.307741 0.818409
vt 0.305574 0.819307
vt 0.544795 0.641908
vt 0.544692 0.641968
vt 0.544901 0.634852
vt 0.544795 0.634876
vt 0.544795 0.624848
vt 0.544901 0.624873
vt 0.545545 0.606585
vt 0.545441 0.606610
vt 0.545441 0.596581
vt 0.545545 0.596606
vt 0.545329 0.683273
vt 0.545223 0.683298
vt 0.545223 0.673270
vt 0.545329 0.673294
vt 0.279108 0.820241
vt 0.279108 0.824994
vt 0.275747 0.828355
vt 0.270994 0.828355
vt 0.267633 0.824995
vt 0.267633 0.820241
vt 0.270994 0.816880
vt 0.275747 0.816880
vt 0.545545 0.596557
vt 0.545441 0.596581
vt 0.545441 0.586553
vt 0.545545 0.586578
vt 0.545227 0.641908
vt 0.545124 0.641968
vt 0.545548 0.666178
vt 0.545651 0.666238
vt 0.545651 0.690330
vt 0.545548 0.690389
vt 0.283531 0.818409
vt 0.277579 0.812458
vt 0.278384 0.810512
vt 0.281363 0.819307
vt 0.276681 0.814625
vt 0.833512 0.560834
vt 0.835488 0.561640
vt 0.835488 0.570057
vt 0.833512 0.570862
vt 0.270060 0.814625
vt 0.269162 0.812458
vt 0.268356 0.810512
vt 0.263210 0.818409
vt 0.261265 0.817604
vt 0.265377 0.819307
vt 0.263210 0.826826
vt 0.261265 0.827632
vt 0.265377 0.825929
vt 0.269162 0.832778
vt 0.268356 0.834723
vt 0.270060 0.830611
vt 0.419660 0.830566
vt 0.421609 0.831372
vt 0.421609 0.839789
vt 0.419660 0.840595
vt 0.276681 0.830611
vt 0.277579 0.832778
vt 0.278384 0.834723
vt 0.283530 0.826826
vt 0.281363 0.825929
vt 0.545124 0.617757
vt 0.545227 0.617816
vt 0.544473 0.659062
vt 0.544367 0.659087
vt 0.544367 0.649059
vt 0.544473 0.649083
vt 0.545650 0.596557
vt 0.545545 0.596581
vt 0.545545 0.586553
vt 0.545650 0.586578
vt 0.545333 0.634852
vt 0.545227 0.634876
vt 0.545227 0.624848
vt 0.545333 0.624873
vt 0.327530 0.820241
vt 0.327530 0.824994
vt 0.324169 0.828355
vt 0.319415 0.828355
vt 0.316054 0.824994
vt 0.316054 0.820241
vt 0.319415 0.816880
vt 0.324169 0.816880
vt 0.545545 0.616614
vt 0.545442 0.616638
vt 0.545442 0.606610
vt 0.545545 0.606635
vt 0.544796 0.666119
vt 0.544692 0.666178
vt 0.545555 0.617757
vt 0.545659 0.617817
vt 0.545659 0.641908
vt 0.545555 0.641968
vt 0.333897 0.817604
vt 0.331952 0.818409
vt 0.326000 0.812458
vt 0.326806 0.810512
vt 0.329785 0.819307
vt 0.325103 0.814625
vt 0.423559 0.830566
vt 0.425508 0.831372
vt 0.425508 0.839789
vt 0.423559 0.840595
vt 0.318481 0.814625
vt 0.317583 0.812458
vt 0.316778 0.810512
vt 0.311632 0.818409
vt 0.313799 0.819307
vt 0.311632 0.826826
vt 0.313799 0.825929
vt 0.317583 0.832778
vt 0.316778 0.834723
vt 0.318481 0.830611
vt 0.835488 0.560834
vt 0.837464 0.561640
vt 0.837464 0.570057
vt 0.835488 0.570862
vt 0.325103 0.830611
vt 0.326000 0.832778
vt 0.326806 0.834723
vt 0.331952 0.826826
vt 0.333897 0.827632
vt 0.329785 0.825929
vt 0.544692 0.641968
vt 0.544796 0.642027
vt 0.544901 0.649084
vt 0.544901 0.659063
vt 0.544795 0.659087
vt 0.544795 0.649059
vt 0.545649 0.606635
vt 0.545649 0.616614
vt 0.545545 0.616638
vt 0.545545 0.606610
vt 0.545333 0.649084
vt 0.545333 0.659063
vt 0.545227 0.659087
vt 0.545227 0.649059
vt 0.254897 0.820241
vt 0.254897 0.824994
vt 0.251536 0.828355
vt 0.246783 0.828355
vt 0.243422 0.824995
vt 0.243422 0.820241
vt 0.246783 0.816880
vt 0.251536 0.816880
vt 0.545441 0.596606
vt 0.545441 0.606585
vt 0.545337 0.606610
vt 0.545337 0.596581
vt 0.545223 0.642027
vt 0.545120 0.641968
vt 0.545659 0.666119
vt 0.545555 0.666178
vt 0.545659 0.642027
vt 0.261265 0.827632
vt 0.259320 0.826826
vt 0.259320 0.818409
vt 0.257152 0.825929
vt 0.257152 0.819307
vt 0.837464 0.570862
vt 0.837464 0.560834
vt 0.839440 0.561640
vt 0.839440 0.570057
vt 0.253368 0.832778
vt 0.252470 0.830611
vt 0.254174 0.834723
vt 0.244145 0.834723
vt 0.244951 0.832778
vt 0.245849 0.830611
vt 0.237054 0.827632
vt 0.238999 0.826826
vt 0.241167 0.825929
vt 0.237054 0.817604
vt 0.238999 0.818409
vt 0.241167 0.819307
vt 0.421609 0.840595
vt 0.421609 0.830566
vt 0.423559 0.831372
vt 0.423559 0.839789
vt 0.244951 0.812458
vt 0.245849 0.814625
vt 0.244145 0.810512
vt 0.254174 0.810512
vt 0.253368 0.812458
vt 0.252470 0.814625
vt 0.545223 0.666119
vt 0.818507 0.432282
vt 0.818507 0.571287
vt 0.545671 0.432282
vt 0.417383 0.146638
vt 0.278279 0.146638
vt 0.278279 0.000000
vt 0.417383 0.000000
vt 0.272836 0.439915
vt 0.000000 0.439915
vt 0.000000 0.293276
vt 0.272836 0.293276
vt 0.417383 0.293276
vt 0.278279 0.293276
vt 0.272836 0.586553
vt 0.000000 0.586553
vt 0.139140 0.288784
vt 0.273787 0.288784
vt 0.278279 0.293276
vt 0.139140 0.293276
vt 0.139083 0.146638
vt 0.008928 0.146638
vt 0.008928 0.008985
vt 0.139083 0.008985
vt 0.545671 0.439915
vt 0.545671 0.293276
vt 0.545671 0.586553
vt 0.556487 0.139002
vt 0.556487 0.000000
vt 0.829323 0.000000
vt 0.829323 0.139002
vt 0.004492 0.288784
vt 0.000000 0.293276
vt 0.556487 0.146638
vt 0.556487 0.000000
vt 0.139140 0.004493
vt 0.004492 0.004493
vt 0.000000 0.000000
vt 0.139140 0.000000
vt 0.139083 0.284291
vt 0.269239 0.284291
vt 0.004492 0.146638
vt 0.000000 0.146638
vt 0.556487 0.293276
vt 0.269239 0.146638
vt 0.269239 0.008985
vt 0.273787 0.146638
vt 0.273787 0.004493
vt 0.278279 0.000000
vt 0.278279 0.146638
vt 0.008928 0.284291
vt 0.556487 0.278003
vt 0.829323 0.278003
vt 0.536771 0.866352
vt 0.536771 0.728699
vt 0.541264 0.728699
vt 0.541264 0.870844
vt 0.536771 0.591045
vt 0.541264 0.586553
vt 0.818507 0.293276
vt 0.545671 0.293276
s 0
f 43/1/1 53/2/1 54/3/1 42/4/1
f 18/5/2 25/6/2 37/7/2 30/8/2
f 63/9/3 46/10/3 52/11/3 65/12/3
f 60/13/4 66/14/4 55/15/4 47/16/4
f 55/17/1 52/18/1 46/19/1 47/20/1
f 41/21/5 67/22/5 64/23/5 70/24/5
f 47/20/1 46/19/1 3/25/1 6/26/1
f 62/27/6 61/28/6 6/29/6 3/30/6
f 57/31/5 56/32/5 2/33/5 1/34/5
f 4/35/7 5/27/7 12/30/7 14/36/7
f 51/37/5 48/38/5 44/39/5 45/40/5
f 90/41/1 7/42/1 8/43/1 89/44/1
f 11/45/4 12/46/4 5/47/4 81/48/4
f 10/49/3 82/50/3 4/51/3 14/52/3
f 20/53/5 19/54/5 12/55/5 11/56/5
f 25/57/5 18/58/5 10/59/5 14/60/5
f 22/61/5 21/62/5 13/63/5 69/64/5
f 24/65/5 23/66/5 76/67/5 68/68/5
f 4/69/1 82/70/1 81/71/1 5/72/1
f 19/54/5 25/57/5 14/60/5 12/55/5
f 26/73/5 22/61/5 69/64/5 75/74/5
f 23/66/5 26/73/5 75/74/5 76/67/5
f 27/75/5 24/65/5 68/68/5 15/76/5
f 17/77/5 27/75/5 15/76/5 9/78/5
f 28/79/5 20/53/5 11/56/5 16/80/5
f 21/62/5 28/79/5 16/80/5 13/63/5
f 29/81/5 30/82/5 37/83/5 31/84/5 32/85/5 40/86/5 33/87/5 34/88/5 38/89/5 35/90/5 36/91/5 39/92/5
f 28/93/3 21/94/3 33/95/3 40/96/3
f 19/97/8 20/98/8 32/99/8 31/100/8
f 24/101/9 27/102/9 39/103/9 36/104/9
f 25/6/6 19/97/6 31/100/6 37/7/6
f 21/94/10 22/105/10 34/106/10 33/95/10
f 27/102/4 17/107/4 29/108/4 39/103/4
f 22/109/11 26/110/11 38/111/11 34/112/11
f 23/113/12 24/114/12 36/115/12 35/116/12
f 20/117/13 28/93/13 40/96/13 32/118/13
f 17/107/14 18/119/14 30/120/14 29/108/14
f 26/110/7 23/113/7 35/116/7 38/111/7
f 43/121/3 70/122/3 64/123/3 53/124/3
f 61/125/4 60/13/4 47/16/4 6/126/4
f 62/127/3 3/128/3 46/10/3 63/9/3
f 53/124/3 64/123/3 65/12/3 52/11/3
f 67/129/4 54/130/4 55/15/4 66/14/4
f 58/131/5 59/132/5 50/133/5 49/134/5
f 52/18/1 55/17/1 54/3/1 53/2/1
f 45/40/5 44/39/5 60/135/5 63/136/5
f 48/38/5 51/37/5 65/137/5 66/138/5
f 51/37/5 45/40/5 63/136/5 65/137/5
f 44/39/5 48/38/5 66/138/5 60/135/5
f 2/33/5 56/32/5 60/135/5 61/139/5
f 1/34/5 2/33/5 61/139/5 62/140/5
f 57/31/5 1/34/5 62/140/5 63/136/5
f 56/32/5 57/31/5 63/136/5 60/135/5
f 50/133/5 59/132/5 65/137/5 64/23/5
f 58/131/5 49/134/5 67/22/5 66/138/5
f 59/132/5 58/131/5 66/138/5 65/137/5
f 49/134/5 50/133/5 64/23/5 67/22/5
f 67/129/4 41/141/4 42/142/4 54/130/4
f 83/143/1 8/43/1 7/42/1 84/144/1
f 86/145/4 69/146/4 8/147/4 83/148/4
f 84/149/3 7/150/3 68/151/3 85/152/3
f 43/121/3 84/149/3 85/152/3 70/122/3
f 41/141/4 86/145/4 83/148/4 42/142/4
f 75/74/5 69/64/5 71/153/5 78/154/5
f 75/74/5 78/154/5 77/155/5 76/67/5
f 76/67/5 77/155/5 72/156/5 68/68/5
f 42/4/1 83/143/1 84/144/1 43/1/1
f 73/157/5 71/153/5 69/64/5 86/158/5
f 72/156/5 74/159/5 85/160/5 68/68/5
f 74/159/5 80/161/5 70/24/5 85/160/5
f 86/158/5 41/21/5 79/162/5 73/157/5
f 70/24/5 80/161/5 79/162/5 41/21/5
f 18/58/5 17/77/5 9/78/5 10/59/5
f 82/70/1 87/163/1 88/164/1 81/71/1
f 87/163/1 90/41/1 89/44/1 88/164/1
f 69/146/4 13/165/4 89/166/4 8/147/4
f 13/165/4 16/167/4 88/168/4 89/166/4
f 16/167/4 11/45/4 81/48/4 88/168/4
f 9/169/3 87/170/3 82/50/3 10/49/3
f 90/171/3 87/170/3 9/169/3 15/172/3
f 7/150/3 90/171/3 15/172/3 68/151/3
f 79/173/15 80/174/15 96/175/15 95/176/15
f 92/177/5 91/178/5 98/179/5 97/180/5 93/181/5 94/182/5 95/183/5 96/184/5
f 78/185/16 71/186/16 93/187/16 97/188/16
f 71/186/17 73/189/17 94/190/17 93/187/17
f 72/191/18 77/192/18 98/193/18 91/194/18
f 77/192/19 78/195/19 97/196/19 98/193/19
f 80/174/20 74/197/20 92/198/20 96/175/20
f 73/189/21 79/199/21 95/200/21 94/190/21
f 74/201/22 72/202/22 91/203/22 92/204/22
f 99/205/1 101/206/1 102/207/1 100/208/1
f 101/209/3 99/210/3 105/211/3 106/212/3
f 100/213/4 102/214/4 103/212/4 104/211/4
f 99/215/7 100/216/7 104/217/7 105/218/7
f 102/219/6 101/220/6 106/221/6 103/222/6
f 105/223/5 104/224/5 103/225/5 106/226/5
f 107/227/1 109/228/1 110/229/1 108/230/1
f 109/231/3 107/232/3 113/233/3 114/234/3
f 108/235/4 110/236/4 111/234/4 112/237/4
f 107/238/7 108/239/7 112/240/7 113/241/7
f 110/242/6 109/243/6 114/244/6 111/245/6
f 113/246/5 112/247/5 111/248/5 114/249/5
f 115/250/1 117/251/1 118/252/1 116/253/1
f 117/248/3 115/254/3 121/255/3 122/256/3
f 116/257/4 118/258/4 119/259/4 120/260/4
f 115/261/7 116/262/7 120/263/7 121/264/7
f 118/265/6 117/266/6 122/267/6 119/268/6
f 121/269/5 120/270/5 119/271/5 122/272/5
f 124/273/1 128/274/1 127/275/1 126/276/1 125/277/1 129/278/1 130/279/1 123/280/1
f 132/281/5 131/282/5 138/283/5 137/284/5 133/285/5 134/286/5 135/287/5 136/288/5
f 130/176/15 129/289/15 145/290/15 146/291/15
f 125/292/23 126/293/23 142/204/23 141/294/23
f 126/295/24 127/296/24 143/297/24 142/298/24
f 123/299/21 130/300/21 146/301/21 139/302/21
f 127/296/19 128/303/19 144/304/19 143/297/19
f 124/305/17 123/299/17 139/302/17 140/306/17
f 128/199/16 124/305/16 140/306/16 144/198/16
f 129/289/20 125/307/20 141/308/20 145/290/20
f 131/282/25 132/281/25 140/309/25 139/310/25
f 134/286/26 133/285/26 141/311/26 142/312/26
f 136/288/27 135/287/27 143/313/27 144/314/27
f 137/284/28 138/283/28 146/315/28 145/316/28
f 138/283/29 131/282/29 139/310/29 146/315/29
f 133/285/30 137/284/30 145/316/30 141/311/30
f 135/287/31 134/286/31 142/312/31 143/313/31
f 132/281/32 136/288/32 144/314/32 140/309/32
s 1
f 147/317/1 157/318/1 154/319/1 153/320/1 156/321/1 152/322/1 151/323/1 158/324/1 150/325/1 149/326/1 155/327/1 148/328/1
f 159/329/33 160/330/34 167/331/35 161/332/36 162/333/37 170/334/38 163/335/39 164/336/40 168/337/41 165/338/42 166/339/43 169/340/44
f 151/341/45 152/342/46 176/343/46 175/344/45
f 157/345/47 147/346/48 171/347/48 181/348/47
f 152/349/46 156/350/49 180/351/49 176/352/46
f 153/353/50 154/354/51 178/355/51 177/356/50
f 150/112/52 158/357/53 182/358/53 174/359/52
f 147/346/48 148/360/54 172/361/54 171/347/48
f 156/350/49 153/353/50 177/356/50 180/351/49
f 148/362/54 155/363/55 179/364/55 172/365/54
f 158/357/53 151/341/45 175/344/45 182/358/53
f 149/366/56 150/367/52 174/368/52 173/369/56
f 154/370/51 157/345/47 181/348/47 178/371/51
f 155/363/55 149/366/56 173/369/56 179/364/55
f 169/340/44 166/339/43 190/372/57 193/373/58
f 167/331/35 160/330/34 184/374/59 191/375/60
f 170/334/38 162/333/37 186/376/61 194/377/62
f 168/337/41 164/336/40 188/378/63 192/379/64
f 159/329/33 183/380/65 184/374/59 160/330/34
f 188/378/63 187/381/66 175/382/67 176/383/68
f 164/336/40 163/335/39 187/381/66 188/378/63
f 191/375/60 184/374/59 172/384/69 179/385/70
f 186/376/61 185/386/71 173/387/72 174/388/73
f 162/333/37 161/332/36 185/386/71 186/376/61
f 190/372/57 189/389/74 177/390/75 178/391/76
f 194/377/62 186/376/61 174/388/73 182/392/77
f 192/379/64 188/378/63 176/383/68 180/393/78
f 193/373/58 190/372/57 178/391/76 181/394/79
f 185/386/71 191/375/60 179/385/70 173/387/72
f 159/329/33 169/340/44 193/373/58 183/380/65
f 189/389/74 192/379/64 180/393/78 177/390/75
f 165/338/42 168/337/41 192/379/64 189/389/74
f 183/380/65 193/373/58 181/394/79 171/395/80
f 166/339/43 165/338/42 189/389/74 190/372/57
f 187/381/66 194/377/62 182/392/77 175/382/67
f 161/332/36 167/331/35 191/375/60 185/386/71
f 184/374/59 183/380/65 171/395/80 172/384/69
f 163/335/39 170/334/38 194/377/62 187/381/66
s 0
f 217/396/81 204/397/81 202/398/81 219/399/81
f 207/400/82 214/401/82 212/402/82 209/403/82
f 197/404/83 224/405/83 222/406/83 199/407/83
f 221/408/84 200/409/84 198/410/84 223/411/84
f 211/412/85 210/413/85 208/414/85 213/415/85
f 201/416/86 220/417/86 218/418/86 203/419/86
f 225/420/87 196/421/87 226/422/87 195/423/87
f 215/424/88 206/425/88 204/426/88 217/427/88
f 205/428/89 216/429/89 214/401/89 207/400/89
f 219/399/90 202/398/90 200/409/90 221/408/90
f 195/423/91 226/422/91 224/405/91 197/404/91
f 209/430/92 212/431/92 210/413/92 211/412/92
f 199/432/93 222/433/93 220/417/93 201/416/93
f 223/434/94 198/435/94 196/421/94 225/420/94
f 213/415/95 208/414/95 206/425/95 215/424/95
f 203/419/96 218/418/96 216/429/96 205/428/96
f 226/436/1 196/437/1 198/438/1 200/439/1 202/440/1 204/441/1 206/442/1 208/443/1 210/444/1 212/445/1 214/446/1 216/447/1 218/448/1 220/449/1 222/450/1 224/451/1
f 195/452/5 197/453/5 199/454/5 201/455/5 203/456/5 205/457/5 207/458/5 209/459/5 211/460/5 213/461/5 215/462/5 217/463/5 219/464/5 221/465/5 223/466/5 225/467/5
f 227/468/97 229/469/97 250/470/97 244/471/97
f 241/472/98 227/473/98 244/474/98 243/475/98
f 235/476/99 237/477/99 246/478/99 247/479/99
f 229/469/100 231/480/100 249/481/100 250/470/100
f 239/482/101 241/472/101 243/475/101 245/483/101
f 233/484/102 235/476/102 247/479/102 248/481/102
f 237/485/103 239/482/103 245/483/103 246/486/103
f 231/487/104 233/488/104 248/489/104 249/490/104
f 232/491/100 230/492/100 253/493/100 254/494/100
f 227/495/1 241/496/1 239/497/1 237/498/1 235/499/1 233/500/1 231/501/1 229/502/1
f 242/503/5 228/504/5 243/505/5 244/506/5
f 228/504/5 230/507/5 245/508/5 243/505/5
f 230/507/5 232/509/5 246/510/5 245/508/5
f 232/509/5 234/511/5 247/512/5 246/510/5
f 234/511/5 236/513/5 248/514/5 247/512/5
f 236/513/5 238/515/5 249/516/5 248/514/5
f 238/515/5 240/517/5 250/518/5 249/516/5
f 240/517/5 242/503/5 244/506/5 250/518/5
f 252/519/5 258/520/5 257/521/5 256/522/5 255/523/5 254/524/5 253/525/5 251/526/5
f 228/527/102 242/528/102 252/529/102 251/530/102
f 242/528/99 240/531/99 258/532/99 252/529/99
f 238/533/101 236/534/101 256/535/101 257/536/101
f 234/537/97 232/491/97 254/494/97 255/538/97
f 230/539/104 228/540/104 251/541/104 253/542/104
f 240/543/103 238/533/103 257/536/103 258/544/103
f 236/534/98 234/545/98 255/546/98 256/535/98
f 259/547/105 276/548/105 282/549/105 261/550/105
f 273/551/106 275/552/106 276/485/106 259/553/106
f 267/554/107 279/555/107 278/553/107 269/477/107
f 261/550/108 282/549/108 281/556/108 263/557/108
f 271/558/109 277/559/109 275/552/109 273/551/109
f 265/560/110 280/561/110 279/555/110 267/554/110
f 269/562/111 278/563/111 277/559/111 271/558/111
f 263/564/112 281/565/112 280/566/112 265/567/112
f 264/568/108 286/569/108 285/570/108 262/571/108
f 259/572/1 261/573/1 263/501/1 265/574/1 267/575/1 269/576/1 271/577/1 273/578/1
f 274/579/5 276/580/5 275/505/5 260/581/5
f 260/581/5 275/505/5 277/508/5 262/582/5
f 262/582/5 277/508/5 278/583/5 264/584/5
f 264/584/5 278/583/5 279/585/5 266/586/5
f 266/586/5 279/585/5 280/587/5 268/588/5
f 268/588/5 280/587/5 281/589/5 270/590/5
f 270/590/5 281/589/5 282/591/5 272/592/5
f 272/592/5 282/591/5 276/580/5 274/579/5
f 284/593/5 283/594/5 285/595/5 286/596/5 287/597/5 288/598/5 289/599/5 290/600/5
f 260/601/110 283/602/110 284/603/110 274/604/110
f 274/604/107 284/603/107 290/605/107 272/606/107
f 270/607/109 289/608/109 288/609/109 268/610/109
f 266/611/105 287/612/105 286/569/105 264/568/105
f 262/613/112 285/614/112 283/615/112 260/616/112
f 272/543/111 290/544/111 289/608/111 270/607/111
f 268/610/106 288/609/106 287/617/106 266/618/106
f 291/619/1 293/620/1 294/621/1 292/622/1
f 293/623/3 291/207/3 297/624/3 298/625/3
f 292/626/4 294/627/4 295/628/4 296/629/4
f 291/630/7 292/631/7 296/632/7 297/633/7
f 294/634/6 293/635/6 298/636/6 295/637/6
f 297/638/5 296/639/5 295/640/5 298/641/5
f 299/642/1 301/643/1 302/644/1 300/645/1
f 301/646/3 299/647/3 305/648/3 306/649/3
f 300/650/4 302/651/4 303/652/4 304/653/4
f 299/654/7 300/655/7 304/656/7 305/657/7
f 302/262/6 301/658/6 306/659/6 303/660/6
f 305/661/5 304/629/5 303/628/5 306/246/5
f 307/662/7 312/663/7 327/664/7 332/665/7
f 307/666/1 309/667/1 310/668/1 308/669/1 315/670/1 317/671/1 318/672/1 316/673/1 319/674/1 321/675/1 322/676/1 320/677/1 311/678/1 313/679/1 314/680/1 312/681/1
f 319/682/6 316/683/6 335/684/6 324/685/6
f 311/686/4 320/687/4 323/688/4 328/689/4
f 331/690/5 333/691/5 334/692/5 332/693/5 327/694/5 329/695/5 330/696/5 328/697/5 323/698/5 325/699/5 326/700/5 324/701/5 335/702/5 337/703/5 338/704/5 336/705/5
f 331/706/48 308/707/48 310/708/48 333/709/48
f 333/709/54 310/708/54 309/710/54 334/711/54
f 334/712/55 309/713/55 307/662/55 332/665/55
f 311/686/53 328/689/53 330/714/53 313/715/53
f 313/716/52 330/717/52 329/718/52 314/719/52
f 314/719/56 329/718/56 327/664/56 312/663/56
f 323/688/45 320/687/45 322/720/45 325/721/45
f 325/722/46 322/723/46 321/724/46 326/725/46
f 326/725/49 321/724/49 319/682/49 324/685/49
f 315/726/47 336/727/47 338/728/47 317/729/47
f 317/729/51 338/728/51 337/730/51 318/731/51
f 318/732/50 337/733/50 335/684/50 316/683/50
f 315/726/3 308/707/3 331/706/3 336/727/3
f 339/734/1 341/735/1 342/736/1 340/737/1
f 341/738/3 339/739/3 345/206/3 346/740/3
f 340/741/4 342/742/4 343/743/4 344/255/4
f 339/744/7 340/234/7 344/236/7 345/745/7
f 342/234/6 341/746/6 346/747/6 343/231/6
f 345/748/5 344/749/5 343/750/5 346/751/5
f 347/752/1 348/753/1 353/754/1 354/755/1 355/756/1 356/757/1 351/758/1 352/759/1
f 355/760/6 354/761/6 361/762/6 358/763/6
f 347/764/7 352/765/7 359/766/7 350/767/7
f 353/768/3 348/769/3 349/770/3 362/771/3
f 349/770/54 348/769/54 347/229/54 350/772/54
f 349/773/5 350/774/5 359/775/5 360/776/5 357/777/5 358/778/5 361/779/5 362/780/5
f 351/781/52 360/782/52 359/766/52 352/765/52
f 357/783/46 356/784/46 355/760/46 358/763/46
f 353/768/51 362/771/51 361/785/51 354/786/51
f 351/787/4 356/788/4 357/789/4 360/790/4
f 363/791/1 364/792/1 365/793/1 366/794/1 373/795/1 374/796/1 371/797/1 372/798/1
f 373/799/6 366/800/6 369/801/6 376/802/6
f 363/803/7 372/804/7 377/805/7 368/806/7
f 367/807/5 368/808/5 377/809/5 378/810/5 375/811/5 376/812/5 369/813/5 370/814/5
f 367/815/54 364/816/54 363/817/54 368/818/54
f 365/819/51 370/820/51 369/821/51 366/822/51
f 365/819/3 364/816/3 367/815/3 370/820/3
f 371/35/52 378/823/52 377/805/52 372/804/52
f 375/823/46 374/824/46 373/799/46 376/802/46
f 371/825/4 374/826/4 375/827/4 378/828/4
f 387/829/4 381/830/4 397/831/4 403/832/4
f 381/833/5 391/834/5 392/835/5 390/836/5 382/837/5
f 383/838/1 384/839/1 388/840/1 389/841/1 387/842/1
f 380/843/1 383/838/1 399/844/1 396/845/1
f 399/844/1 383/838/1 387/842/1 403/846/1
f 397/847/5 381/833/5 382/837/5 398/848/5
f 382/837/5 390/836/5 393/849/5 394/850/5 379/851/5
f 381/830/113 387/829/113 389/852/113 391/853/113
f 391/854/114 389/855/114 388/856/114 392/857/114
f 392/857/115 388/856/115 384/858/115 390/859/115
f 380/860/116 379/861/116 394/862/116 385/863/116
f 385/864/117 394/865/117 393/866/117 386/867/117
f 386/867/118 393/866/118 390/859/118 384/858/118
f 380/843/1 385/868/1 386/869/1 384/839/1 383/838/1
f 397/847/5 398/848/5 406/870/5 408/871/5 407/872/5
f 399/844/1 403/846/1 405/873/1 404/874/1 400/875/1
f 398/848/5 395/876/5 410/877/5 409/878/5 406/870/5
f 398/848/5 382/837/5 379/851/5 395/876/5
f 397/831/119 407/879/119 405/880/119 403/832/119
f 407/881/120 408/882/120 404/883/120 405/884/120
f 408/882/121 406/885/121 400/886/121 404/883/121
f 396/887/122 401/772/122 410/232/122 395/888/122
f 401/889/123 402/890/123 409/891/123 410/892/123
f 402/890/124 400/886/124 406/885/124 409/891/124
f 396/845/1 399/844/1 400/875/1 402/893/1 401/894/1
f 379/861/3 380/860/3 396/887/3 395/888/3
s 1
f 414/895/125 412/896/126 423/897/126 425/898/125
f 412/896/126 426/899/127 411/900/127 423/897/126
f 422/901/128 420/902/129 417/903/129 415/904/128
f 416/905/130 414/906/125 425/907/125 421/908/130
f 426/909/127 424/910/131 413/911/131 411/912/127
f 420/913/129 418/914/132 419/915/132 417/916/129
f 414/917/5 416/918/5 418/919/5 420/920/5 422/921/5 424/922/5 426/923/5 412/924/5
f 424/925/131 422/901/128 415/904/128 413/926/131
f 418/914/132 416/905/130 421/908/130 419/915/132
f 425/927/1 423/928/1 411/929/1 413/930/1 415/931/1 417/932/1 419/933/1 421/934/1
f 430/935/133 441/936/133 439/937/134 428/938/134
f 428/938/134 439/937/134 427/939/135 442/940/135
f 438/941/136 431/942/136 433/943/137 436/944/137
f 432/945/138 437/946/138 441/947/133 430/948/133
f 442/949/135 427/950/135 429/951/139 440/952/139
f 436/953/137 433/954/137 435/955/140 434/956/140
f 430/957/5 428/958/5 442/959/5 440/960/5 438/961/5 436/962/5 434/963/5 432/964/5
f 440/965/139 429/966/139 431/942/136 438/941/136
f 434/956/140 435/955/140 437/946/138 432/945/138
f 441/967/1 437/968/1 435/969/1 433/970/1 431/971/1 429/972/1 427/973/1 439/974/1
f 446/975/136 457/976/136 455/966/137 444/965/137
f 444/977/137 455/978/137 443/979/140 458/980/140
f 454/981/133 447/982/133 449/983/134 452/984/134
f 448/985/139 453/902/139 457/976/136 446/975/136
f 458/980/140 443/979/140 445/986/138 456/987/138
f 452/984/134 449/983/134 451/988/135 450/989/135
f 446/990/5 444/991/5 458/992/5 456/993/5 454/994/5 452/995/5 450/996/5 448/997/5
f 456/987/138 445/986/138 447/998/133 454/999/133
f 450/1000/135 451/1001/135 453/1002/139 448/1003/139
f 457/1004/1 453/960/1 451/1005/1 449/1006/1 447/1007/1 445/1008/1 443/1009/1 455/1010/1
f 462/1011/128 460/925/129 471/1012/129 473/1013/128
f 460/1014/129 474/1015/132 459/1016/132 471/1017/129
f 470/899/125 468/1018/126 465/1019/126 463/900/125
f 464/953/131 462/1011/128 473/1013/128 469/954/131
f 474/1015/132 472/1020/130 461/1021/130 459/1016/132
f 468/1018/126 466/936/127 467/1022/127 465/1019/126
f 462/1023/5 464/1024/5 466/1025/5 468/1026/5 470/1027/5 472/1028/5 474/1029/5 460/1030/5
f 472/1020/130 470/1031/125 463/1032/125 461/1021/130
f 466/474/127 464/1033/131 469/1034/131 467/1035/127
f 473/1036/1 471/1037/1 459/1038/1 461/1039/1 463/1040/1 465/1041/1 467/1042/1 469/1043/1
s 0
f 553/1044/5 480/1045/5 476/1046/5 552/1047/5
f 554/1048/7 485/1049/7 475/1050/7 547/1051/7
f 559/1052/4 565/1053/4 475/1054/4 485/1055/4
f 486/1056/7 477/1057/7 482/1058/7 489/1059/7
f 505/1060/5 479/1061/5 483/1062/5 507/1063/5
f 484/1064/4 476/1065/4 480/1066/4 490/1067/4
f 479/1061/5 478/1068/5 481/1069/5 483/1062/5
f 556/1070/5 506/1071/5 480/1045/5 553/1044/5
f 478/1072/6 487/1073/6 488/1074/6 481/1075/6
f 552/1076/6 476/1077/6 484/1078/6 555/1079/6
f 549/1080/1 548/1081/1 490/1082/1 508/1083/1
f 498/1084/1 491/1085/1 487/1086/1 497/1087/1
f 510/1088/1 492/1089/1 491/1085/1 509/1090/1
f 491/1085/1 492/1089/1 488/1091/1 487/1086/1
f 507/1092/3 483/1093/3 492/1067/3 510/1094/3
f 483/1093/3 481/1095/3 488/1064/3 492/1067/3
f 500/1096/1 498/1084/1 497/1087/1 504/1097/1
f 509/1090/1 491/1085/1 498/1084/1 511/1098/1
f 478/1072/6 494/1099/6 497/1100/6 487/1073/6
f 505/1060/5 512/1101/5 495/1102/5 479/1061/5
f 486/1056/7 496/1103/7 493/1104/7 477/1057/7
f 479/1061/5 495/1102/5 494/1105/5 478/1068/5
f 536/1106/1 500/1096/1 504/1097/1 540/1107/1
f 511/1098/1 498/1084/1 500/1096/1 513/1108/1
f 494/1099/6 501/1109/6 504/1110/6 497/1100/6
f 512/1101/5 514/1111/5 502/1112/5 495/1102/5
f 496/1103/7 503/1113/7 499/1114/7 493/1104/7
f 495/1102/5 502/1112/5 501/1115/5 494/1105/5
f 523/1116/5 524/1117/5 514/1111/5 512/1101/5
f 518/1118/1 511/1098/1 513/1108/1 519/1119/1
f 520/1120/5 523/1116/5 512/1101/5 505/1060/5
f 516/1121/1 509/1090/1 511/1098/1 518/1118/1
f 522/1122/3 507/1092/3 510/1094/3 517/1123/3
f 517/1124/1 510/1088/1 509/1090/1 516/1121/1
f 550/1125/1 549/1080/1 508/1083/1 515/1126/1
f 557/1127/5 521/1128/5 506/1071/5 556/1070/5
f 520/1120/5 505/1060/5 507/1063/5 522/1129/5
f 490/1067/4 480/1066/4 506/1130/4 508/1094/4
f 530/1131/5 520/1120/5 522/1129/5 532/1132/5
f 558/1133/5 531/1134/5 521/1128/5 557/1127/5
f 551/1135/1 550/1125/1 515/1126/1 525/1136/1
f 527/1137/1 517/1124/1 516/1121/1 526/1138/1
f 532/1139/3 522/1122/3 517/1123/3 527/1140/3
f 526/1138/1 516/1121/1 518/1118/1 528/1141/1
f 530/1131/5 533/1142/5 523/1116/5 520/1120/5
f 528/1141/1 518/1118/1 519/1119/1 529/1143/1
f 533/1142/5 534/1144/5 524/1117/5 523/1116/5
f 508/1094/4 506/1130/4 521/1145/4 515/1123/4
f 567/1146/5 568/1147/5 534/1144/5 533/1142/5
f 562/1148/1 528/1141/1 529/1143/1 563/1149/1
f 564/1150/5 567/1146/5 533/1142/5 530/1131/5
f 560/1151/1 526/1138/1 528/1141/1 562/1148/1
f 566/1152/3 532/1139/3 527/1140/3 561/1052/3
f 561/1153/1 527/1137/1 526/1138/1 560/1151/1
f 572/1154/1 551/1135/1 525/1136/1 559/1155/1
f 571/1156/5 565/1157/5 531/1134/5 558/1133/5
f 564/1150/5 530/1131/5 532/1132/5 566/1158/5
f 515/1123/4 521/1145/4 531/1159/4 525/1140/4
f 568/1147/5 569/1160/5 546/1161/5 534/1144/5
f 563/1149/1 529/1143/1 545/1162/1 570/1163/1
f 529/1143/1 519/1119/1 544/1164/1 545/1162/1
f 534/1144/5 546/1161/5 543/1165/5 524/1117/5
f 524/1117/5 543/1165/5 542/1166/5 514/1111/5
f 519/1119/1 513/1108/1 541/1167/1 544/1164/1
f 548/1081/1 536/1106/1 540/1107/1 555/1168/1
f 513/1108/1 500/1096/1 536/1106/1 541/1167/1
f 501/1109/6 537/1169/6 540/1170/6 504/1110/6
f 514/1111/5 542/1166/5 538/1171/5 502/1112/5
f 503/1113/7 539/1172/7 535/1173/7 499/1114/7
f 502/1112/5 538/1171/5 537/1174/5 501/1115/5
f 490/1082/1 548/1081/1 555/1168/1 484/1175/1
f 569/1160/5 571/1156/5 558/1133/5 546/1161/5
f 570/1163/1 545/1162/1 551/1135/1 572/1154/1
f 545/1162/1 544/1164/1 550/1125/1 551/1135/1
f 546/1161/5 558/1133/5 557/1127/5 543/1165/5
f 543/1165/5 557/1127/5 556/1070/5 542/1166/5
f 544/1164/1 541/1167/1 549/1080/1 550/1125/1
f 541/1167/1 536/1106/1 548/1081/1 549/1080/1
f 537/1169/6 552/1076/6 555/1079/6 540/1170/6
f 542/1166/5 556/1070/5 553/1044/5 538/1171/5
f 539/1172/7 554/1048/7 547/1051/7 535/1173/7
f 538/1171/5 553/1044/5 552/1047/5 537/1174/5
f 539/1176/1 570/1163/1 572/1154/1 554/1177/1
f 535/1178/5 547/1179/5 571/1156/5 569/1160/5
f 503/1180/1 563/1149/1 570/1163/1 539/1176/1
f 499/1181/5 535/1178/5 569/1160/5 568/1147/5
f 477/1182/5 564/1150/5 566/1158/5 482/1183/5
f 547/1179/5 475/1184/5 565/1157/5 571/1156/5
f 554/1177/1 572/1154/1 559/1155/1 485/1185/1
f 489/1186/1 561/1153/1 560/1151/1 486/1187/1
f 482/1188/3 566/1152/3 561/1052/3 489/1055/3
f 486/1187/1 560/1151/1 562/1148/1 496/1189/1
f 477/1182/5 493/1190/5 567/1146/5 564/1150/5
f 496/1189/1 562/1148/1 563/1149/1 503/1180/1
f 493/1190/5 499/1181/5 568/1147/5 567/1146/5
f 525/1140/4 531/1159/4 565/1053/4 559/1052/4
s 1
f 580/1191/141 573/1192/141 582/1193/141 609/1194/141
f 578/1195/142 579/1196/142 605/1197/142 601/1198/142
f 576/1199/143 577/1200/143 597/1201/143 593/1202/143
f 581/1203/144 586/1204/145 590/1205/146 594/1206/147 598/1207/148 602/1208/149 606/1209/150 610/1210/151
f 574/1211/152 575/1212/152 589/1213/152 585/1214/152
f 579/1215/153 580/1191/153 609/1194/153 605/1216/153
f 577/1200/154 578/1217/154 601/1218/154 597/1201/154
f 575/1219/155 576/1199/155 593/1202/155 589/1220/155
f 582/1221/156 585/1222/156 587/1223/157 584/1224/158
f 584/1224/158 587/1223/157 588/1225/159 583/1226/160
f 583/1226/160 588/1225/159 586/1204/145 581/1203/144
f 585/1227/161 589/1228/161 591/1229/162 587/1230/157
f 587/1223/157 591/1231/162 592/1232/163 588/1225/159
f 588/1225/159 592/1232/163 590/1205/146 586/1204/145
f 589/1233/164 593/1234/164 595/1235/165 591/1231/162
f 591/1231/162 595/1235/165 596/1236/166 592/1232/163
f 592/1232/163 596/1236/166 594/1206/147 590/1205/146
f 593/1234/167 597/1237/167 599/1238/168 595/1235/165
f 595/1235/165 599/1238/168 600/1239/169 596/1236/166
f 596/1236/166 600/1239/169 598/1207/148 594/1206/147
f 597/1237/170 601/1240/170 603/1241/171 599/1238/168
f 599/1238/168 603/1241/171 604/1242/172 600/1239/169
f 600/1239/169 604/1242/172 602/1208/149 598/1207/148
f 601/1243/173 605/1244/173 607/1245/174 603/1246/171
f 603/1241/171 607/1247/174 608/1248/175 604/1242/172
f 604/1242/172 608/1248/175 606/1209/150 602/1208/149
f 605/1249/176 609/1250/176 611/1251/177 607/1247/174
f 607/1247/174 611/1251/177 612/1252/178 608/1248/175
f 608/1248/175 612/1252/178 610/1210/151 606/1209/150
f 609/1250/179 582/1221/179 584/1224/158 611/1251/177
f 611/1251/177 584/1224/158 583/1226/160 612/1252/178
f 612/1252/178 583/1226/160 581/1203/144 610/1210/151
f 573/1192/180 574/1253/180 585/1254/180 582/1193/180
f 620/1255/141 649/1256/141 622/1257/141 613/1258/141
f 618/1259/181 641/1260/181 645/1261/181 619/1262/181
f 616/1263/143 633/1264/143 637/1265/143 617/1266/143
f 621/1267/151 650/1268/144 646/1269/145 642/1270/146 638/1271/147 634/1272/148 630/1273/149 626/1274/150
f 614/1275/142 625/1276/142 629/1277/142 615/1278/142
f 619/1279/182 645/1280/182 649/1256/182 620/1255/182
f 617/1266/183 637/1265/183 641/1281/183 618/1282/183
f 615/1283/184 629/1284/184 633/1264/184 616/1263/184
f 622/1237/176 624/1285/177 627/1286/174 625/1287/176
f 624/1285/177 623/1288/178 628/1289/175 627/1286/174
f 623/1288/178 621/1267/151 626/1274/150 628/1289/175
f 625/1290/173 627/1291/174 631/1292/171 629/1293/173
f 627/1286/174 628/1289/175 632/1294/172 631/1295/171
f 628/1289/175 626/1274/150 630/1273/149 632/1294/172
f 629/1296/170 631/1295/171 635/1297/168 633/1298/170
f 631/1295/171 632/1294/172 636/1299/169 635/1297/168
f 632/1294/172 630/1273/149 634/1272/148 636/1299/169
f 633/1298/167 635/1297/168 639/1300/165 637/1301/167
f 635/1297/168 636/1299/169 640/1302/166 639/1300/165
f 636/1299/169 634/1272/148 638/1271/147 640/1302/166
f 637/1301/164 639/1300/165 643/1303/162 641/1304/164
f 639/1300/165 640/1302/166 644/1305/163 643/1303/162
f 640/1302/166 638/1271/147 642/1270/146 644/1305/163
f 641/1306/161 643/1307/162 647/1308/157 645/1309/161
f 643/1303/162 644/1305/163 648/1310/159 647/1311/157
f 644/1305/163 642/1270/146 646/1269/145 648/1310/159
f 645/1312/156 647/1311/157 651/1313/158 649/1234/156
f 647/1311/157 648/1310/159 652/1314/160 651/1313/158
f 648/1310/159 646/1269/145 650/1268/144 652/1314/160
f 649/1234/179 651/1313/158 624/1285/177 622/1237/179
f 651/1313/158 652/1314/160 623/1288/178 624/1285/177
f 652/1314/160 650/1268/144 621/1267/151 623/1288/178
f 613/1258/153 622/1257/153 625/1315/153 614/1316/153
f 660/1317/185 689/1318/185 662/1319/185 653/1320/185
f 658/1321/142 681/1322/142 685/1323/142 659/1324/142
f 656/1325/186 673/1326/186 677/1327/186 657/1328/186
f 661/1329/147 690/1330/148 686/1331/149 682/1332/150 678/1333/151 674/1334/144 670/1335/145 666/1336/146
f 654/1337/152 665/1338/152 669/1339/152 655/1340/152
f 659/1341/184 685/1342/184 689/1318/184 660/1317/184
f 657/1328/187 677/1327/187 681/1343/187 658/1344/187
f 655/1345/182 669/1346/182 673/1326/182 656/1325/182
f 662/1347/164 664/1348/165 667/1349/162 665/1350/164
f 664/1348/165 663/1351/166 668/1352/163 667/1349/162
f 663/1351/166 661/1329/147 666/1336/146 668/1352/163
f 665/1353/161 667/1354/162 671/1355/157 669/1356/161
f 667/1349/162 668/1352/163 672/1357/159 671/1358/157
f 668/1352/163 666/1336/146 670/1335/145 672/1357/159
f 669/1359/156 671/1358/157 675/1360/158 673/1250/156
f 671/1358/157 672/1357/159 676/1361/160 675/1360/158
f 672/1357/159 670/1335/145 674/1334/144 676/1361/160
f 673/1250/179 675/1360/158 679/1362/177 677/1221/179
f 675/1360/158 676/1361/160 680/1363/178 679/1362/177
f 676/1361/160 674/1334/144 678/1333/151 680/1363/178
f 677/1221/176 679/1362/177 683/1364/174 681/1365/176
f 679/1362/177 680/1363/178 684/1366/175 683/1364/174
f 680/1363/178 678/1333/151 682/1332/150 684/1366/175
f 681/1367/173 683/1368/174 687/1369/171 685/1370/173
f 683/1364/174 684/1366/175 688/1371/172 687/1372/171
f 684/1366/175 682/1332/150 686/1331/149 688/1371/172
f 685/1373/170 687/1372/171 691/1374/168 689/1375/170
f 687/1372/171 688/1371/172 692/1376/169 691/1374/168
f 688/1371/172 686/1331/149 690/1330/148 692/1376/169
f 689/1375/167 691/1374/168 664/1348/165 662/1347/167
f 691/1374/168 692/1376/169 663/1351/166 664/1348/165
f 692/1376/169 690/1330/148 661/1329/147 663/1351/166
f 653/1320/188 662/1319/188 665/1377/188 654/1378/188
f 700/1379/185 693/1380/185 702/1381/185 729/1382/185
f 698/1383/181 699/1384/181 725/1385/181 721/1386/181
f 696/1387/186 697/1388/186 717/1389/186 713/1390/186
f 701/1391/148 706/1392/149 710/1393/150 714/1394/151 718/1395/144 722/1396/145 726/1397/146 730/1398/147
f 694/1399/142 695/1400/142 709/1401/142 705/1402/142
f 699/1403/155 700/1379/155 729/1382/155 725/1404/155
f 697/1388/182 698/1405/182 721/1406/182 717/1389/182
f 695/1407/153 696/1387/153 713/1390/153 709/1346/153
f 702/1298/170 705/1408/170 707/1409/171 704/1410/168
f 704/1410/168 707/1409/171 708/1411/172 703/1412/169
f 703/1412/169 708/1411/172 706/1392/149 701/1391/148
f 705/1413/173 709/1414/173 711/1415/174 707/1416/171
f 707/1409/171 711/1417/174 712/1418/175 708/1411/172
f 708/1411/172 712/1418/175 710/1393/150 706/1392/149
f 709/1419/176 713/1420/176 715/1421/177 711/1417/174
f 711/1417/174 715/1421/177 716/1422/178 712/1418/175
f 712/1418/175 716/1422/178 714/1394/151 710/1393/150
f 713/1420/179 717/1423/179 719/1424/158 715/1421/177
f 715/1421/177 719/1424/158 720/1425/160 716/1422/178
f 716/1422/178 720/1425/160 718/1395/144 714/1394/151
f 717/1423/156 721/1426/156 723/1427/157 719/1424/158
f 719/1424/158 723/1427/157 724/1428/159 720/1425/160
f 720/1425/160 724/1428/159 722/1396/145 718/1395/144
f 721/1429/161 725/1430/161 727/1431/162 723/1432/157
f 723/1427/157 727/1433/162 728/1434/163 724/1428/159
f 724/1428/159 728/1434/163 726/1397/146 722/1396/145
f 725/1435/164 729/1436/164 731/1437/165 727/1433/162
f 727/1433/162 731/1437/165 732/1438/166 728/1434/163
f 728/1434/163 732/1438/166 730/1398/147 726/1397/146
f 729/1436/167 702/1298/167 704/1410/168 731/1437/165
f 731/1437/165 704/1410/168 703/1412/169 732/1438/166
f 732/1438/166 703/1412/169 701/1391/148 730/1398/147
f 693/1380/184 694/1439/184 705/1220/184 702/1381/184
s 0
f 760/1440/6 735/1441/6 757/1046/6 745/1442/6
f 765/1443/1 740/1444/1 734/1445/1 756/1446/1
f 750/1447/3 741/1448/3 733/1449/3 755/1450/3
f 760/1451/1 736/1452/1 740/1444/1 765/1443/1
f 757/1453/3 735/1454/3 741/1448/3 750/1447/3
f 737/1455/5 763/1456/5 755/1457/5 749/1458/5
f 752/1459/5 746/1460/5 743/1461/5 739/1462/5
f 740/1463/4 753/1447/4 751/1450/4 734/1464/4
f 736/1465/4 754/1453/4 753/1447/4 740/1463/4
f 756/1466/7 734/1467/7 751/1468/7 749/1469/7
f 759/1470/5 737/1455/5 749/1458/5 751/1471/5
f 741/1472/1 765/1443/1 756/1446/1 733/1473/1
f 738/1474/5 762/1475/5 754/1476/5 745/1477/5
f 742/1478/189 744/1479/189 763/1456/189 737/1455/189
f 761/1480/5 759/1470/5 751/1471/5 753/1481/5
f 762/1475/5 761/1480/5 753/1481/5 754/1476/5
f 735/1482/1 760/1451/1 765/1443/1 741/1472/1
f 758/1483/5 752/1459/5 739/1462/5 747/1484/5
f 766/1485/5 764/1486/5 757/1487/5 750/1488/5
f 763/1456/5 766/1485/5 750/1488/5 755/1457/5
f 739/1462/190 738/1474/190 764/1486/190 747/1484/190
f 746/1460/5 752/1459/5 742/1478/5 748/1489/5
f 744/1479/191 758/1483/191 766/1485/191 763/1456/191
f 758/1483/191 747/1484/191 764/1486/191 766/1485/191
f 733/1490/7 756/1466/7 749/1469/7 755/1491/7
f 748/1489/189 742/1478/189 737/1455/189 759/1470/189
f 743/1492/192 746/1493/192 761/1494/192 762/1495/192
f 746/1493/192 748/1496/192 759/1497/192 761/1494/192
f 743/1461/190 762/1475/190 738/1474/190 739/1462/190
f 764/1486/5 738/1474/5 745/1477/5 757/1487/5
f 736/1498/6 760/1440/6 745/1442/6 754/1499/6
f 752/1459/5 758/1483/5 744/1479/5 742/1478/5
